<svg width="818" height="876" viewBox="0 0 818 876" fill="none" xmlns="http://www.w3.org/2000/svg">
<g filter="url(#filter0_d_21_2)">
<circle cx="128.5" cy="672.5" r="124.5" fill="#CCE3F3"/>
<circle cx="259.5" cy="698.5" r="124.5" fill="#CCE3F3"/>
<circle cx="471" cy="727" r="166" fill="#CCE3F3"/>
<circle cx="687" cy="714" r="166" fill="#CCE3F3"/>
<rect x="29" y="728" width="789" height="152" fill="#CCE3F3"/>
<circle cx="188.5" cy="395.5" r="38.5" fill="#004587"/>
<circle cx="188" cy="447" r="52" fill="#004587"/>
<circle cx="188" cy="524" r="69" fill="#004587"/>
<line x1="189.5" y1="396" x2="189.5" y2="662" stroke="#0B5EBF" stroke-width="3"/>
<line x1="188.618" y1="427.582" x2="180.618" y2="408.582" stroke="#0B5EBF" stroke-width="3"/>
<line x1="188.618" y1="567.582" x2="176.976" y2="539.933" stroke="#0B5EBF" stroke-width="3"/>
<line x1="191.131" y1="503.804" x2="210.203" y2="480.647" stroke="#0B5EBF" stroke-width="3"/>
<circle cx="713.5" cy="376.5" r="38.5" fill="#CCE3F3"/>
<circle cx="713" cy="428" r="52" fill="#CCE3F3"/>
<circle cx="713" cy="505" r="69" fill="#CCE3F3"/>
<line x1="714.5" y1="377" x2="714.5" y2="643" stroke="white" stroke-width="3"/>
<line x1="713.618" y1="408.582" x2="705.618" y2="389.582" stroke="white" stroke-width="3"/>
<line x1="713.618" y1="548.582" x2="701.976" y2="520.933" stroke="white" stroke-width="3"/>
<line x1="716.131" y1="484.804" x2="735.203" y2="461.647" stroke="white" stroke-width="3"/>
<circle cx="525.5" cy="547.5" r="38.5" fill="#FE6602"/>
<circle cx="525" cy="599" r="52" fill="#FE6602"/>
<circle cx="525" cy="676" r="69" fill="#FE6602"/>
<line x1="526.5" y1="548" x2="526.5" y2="814" stroke="#FFC006" stroke-width="3"/>
<line x1="525.618" y1="579.582" x2="517.618" y2="560.582" stroke="#FFC006" stroke-width="3"/>
<line x1="525.618" y1="719.582" x2="513.976" y2="691.933" stroke="#FFC006" stroke-width="3"/>
<line x1="528.131" y1="655.804" x2="547.203" y2="632.647" stroke="#FFC006" stroke-width="3"/>
<rect x="333.5" y="1.5" width="294" height="502" rx="23.5" fill="white" stroke="#004587" stroke-width="3"/>
<path d="M336 27C336 14.2975 346.297 4 359 4H601C614.807 4 626 15.1929 626 29V61H336V27Z" fill="#CCE3F3"/>
<circle cx="408" cy="150" r="52.5" stroke="#004587" stroke-width="3"/>
<circle cx="408.5" cy="137.5" r="15" fill="#FE6602" stroke="#FE6602"/>
<line x1="409.5" y1="155" x2="409.5" y2="178" stroke="#FE6602" stroke-width="3"/>
<path d="M396 173.5C396 171.015 398.015 169 400.5 169H416.5C418.985 169 421 171.015 421 173.5C421 175.985 418.985 178 416.5 178H400.5C398.015 178 396 175.985 396 173.5Z" fill="#FE6602"/>
<rect x="464" y="218" width="211" height="61" rx="25" fill="#FFC007"/>
<path d="M566.5 303L592.5 268.5L606.5 277L566.5 303Z" fill="#FDC104"/>
<circle cx="499.5" cy="248.5" r="15" fill="#FE6602" stroke="#FE6602"/>
<path d="M532.86 244.273V253H531.803V244.273H532.86ZM539.223 249.062V253H538.217V246.455H539.189V247.477H539.274C539.428 247.145 539.661 246.878 539.973 246.676C540.286 246.472 540.689 246.369 541.183 246.369C541.626 246.369 542.014 246.46 542.347 246.642C542.679 246.821 542.938 247.094 543.122 247.46C543.307 247.824 543.399 248.284 543.399 248.841V253H542.393V248.909C542.393 248.395 542.26 247.994 541.993 247.707C541.726 247.418 541.359 247.273 540.893 247.273C540.572 247.273 540.286 247.342 540.033 247.482C539.783 247.621 539.585 247.824 539.44 248.091C539.295 248.358 539.223 248.682 539.223 249.062ZM547.981 253.136C547.35 253.136 546.806 252.997 546.349 252.719C545.895 252.438 545.544 252.045 545.297 251.543C545.052 251.037 544.93 250.449 544.93 249.778C544.93 249.108 545.052 248.517 545.297 248.006C545.544 247.491 545.887 247.091 546.328 246.804C546.771 246.514 547.288 246.369 547.879 246.369C548.22 246.369 548.556 246.426 548.889 246.54C549.221 246.653 549.524 246.838 549.797 247.094C550.069 247.347 550.287 247.682 550.449 248.099C550.61 248.517 550.691 249.031 550.691 249.642V250.068H545.646V249.199H549.669C549.669 248.83 549.595 248.5 549.447 248.21C549.302 247.92 549.095 247.692 548.825 247.524C548.558 247.357 548.243 247.273 547.879 247.273C547.478 247.273 547.132 247.372 546.839 247.571C546.549 247.767 546.326 248.023 546.17 248.338C546.014 248.653 545.936 248.991 545.936 249.352V249.932C545.936 250.426 546.021 250.845 546.191 251.189C546.365 251.53 546.605 251.79 546.912 251.969C547.218 252.145 547.575 252.233 547.981 252.233C548.245 252.233 548.484 252.196 548.697 252.122C548.913 252.045 549.099 251.932 549.255 251.781C549.412 251.628 549.532 251.437 549.618 251.21L550.589 251.483C550.487 251.812 550.315 252.102 550.074 252.352C549.832 252.599 549.534 252.793 549.179 252.932C548.824 253.068 548.424 253.136 547.981 253.136ZM554.966 253.136C554.335 253.136 553.791 252.997 553.333 252.719C552.879 252.438 552.528 252.045 552.281 251.543C552.037 251.037 551.914 250.449 551.914 249.778C551.914 249.108 552.037 248.517 552.281 248.006C552.528 247.491 552.872 247.091 553.312 246.804C553.755 246.514 554.272 246.369 554.863 246.369C555.204 246.369 555.541 246.426 555.873 246.54C556.206 246.653 556.508 246.838 556.781 247.094C557.054 247.347 557.271 247.682 557.433 248.099C557.595 248.517 557.676 249.031 557.676 249.642V250.068H552.63V249.199H556.653C556.653 248.83 556.579 248.5 556.431 248.21C556.287 247.92 556.079 247.692 555.809 247.524C555.542 247.357 555.227 247.273 554.863 247.273C554.463 247.273 554.116 247.372 553.824 247.571C553.534 247.767 553.311 248.023 553.154 248.338C552.998 248.653 552.92 248.991 552.92 249.352V249.932C552.92 250.426 553.005 250.845 553.176 251.189C553.349 251.53 553.589 251.79 553.896 251.969C554.203 252.145 554.559 252.233 554.966 252.233C555.23 252.233 555.468 252.196 555.681 252.122C555.897 252.045 556.083 251.932 556.24 251.781C556.396 251.628 556.517 251.437 556.602 251.21L557.574 251.483C557.471 251.812 557.299 252.102 557.058 252.352C556.816 252.599 556.518 252.793 556.163 252.932C555.808 253.068 555.409 253.136 554.966 253.136ZM561.677 253.136C561.132 253.136 560.65 252.999 560.233 252.723C559.815 252.445 559.488 252.053 559.252 251.547C559.017 251.038 558.899 250.438 558.899 249.744C558.899 249.057 559.017 248.46 559.252 247.955C559.488 247.449 559.816 247.058 560.237 246.783C560.657 246.507 561.143 246.369 561.694 246.369C562.12 246.369 562.457 246.44 562.704 246.582C562.954 246.722 563.145 246.881 563.275 247.06C563.409 247.236 563.512 247.381 563.586 247.494H563.672V244.273H564.677V253H563.706V251.994H563.586C563.512 252.114 563.407 252.264 563.271 252.446C563.135 252.625 562.94 252.786 562.687 252.928C562.434 253.067 562.098 253.136 561.677 253.136ZM561.814 252.233C562.217 252.233 562.558 252.128 562.836 251.918C563.115 251.705 563.326 251.411 563.471 251.036C563.616 250.658 563.689 250.222 563.689 249.727C563.689 249.239 563.618 248.811 563.475 248.445C563.333 248.075 563.123 247.788 562.845 247.584C562.566 247.376 562.223 247.273 561.814 247.273C561.387 247.273 561.032 247.382 560.748 247.601C560.467 247.817 560.255 248.111 560.113 248.483C559.974 248.852 559.904 249.267 559.904 249.727C559.904 250.193 559.975 250.616 560.118 250.997C560.262 251.375 560.475 251.676 560.757 251.901C561.041 252.122 561.393 252.233 561.814 252.233ZM571.96 253.153C571.545 253.153 571.169 253.075 570.831 252.919C570.493 252.76 570.224 252.531 570.025 252.233C569.826 251.932 569.727 251.568 569.727 251.142C569.727 250.767 569.801 250.463 569.949 250.23C570.096 249.994 570.294 249.81 570.541 249.676C570.788 249.543 571.061 249.443 571.359 249.378C571.66 249.31 571.963 249.256 572.267 249.216C572.664 249.165 572.987 249.126 573.234 249.101C573.484 249.072 573.666 249.026 573.779 248.96C573.896 248.895 573.954 248.781 573.954 248.619V248.585C573.954 248.165 573.839 247.838 573.609 247.605C573.382 247.372 573.037 247.256 572.574 247.256C572.093 247.256 571.717 247.361 571.444 247.571C571.172 247.781 570.98 248.006 570.869 248.244L569.914 247.903C570.085 247.506 570.312 247.196 570.596 246.974C570.883 246.75 571.196 246.594 571.534 246.506C571.875 246.415 572.21 246.369 572.539 246.369C572.75 246.369 572.991 246.395 573.264 246.446C573.539 246.494 573.805 246.595 574.061 246.749C574.319 246.902 574.534 247.134 574.704 247.443C574.875 247.753 574.96 248.168 574.96 248.688V253H573.954V252.114H573.903C573.835 252.256 573.721 252.408 573.562 252.57C573.403 252.732 573.191 252.869 572.927 252.983C572.663 253.097 572.341 253.153 571.96 253.153ZM572.113 252.25C572.511 252.25 572.846 252.172 573.119 252.016C573.395 251.859 573.602 251.658 573.741 251.411C573.883 251.163 573.954 250.903 573.954 250.631V249.71C573.912 249.761 573.818 249.808 573.673 249.851C573.531 249.891 573.366 249.926 573.179 249.957C572.994 249.986 572.814 250.011 572.637 250.034C572.464 250.054 572.324 250.071 572.216 250.085C571.954 250.119 571.71 250.175 571.483 250.251C571.258 250.325 571.076 250.437 570.937 250.588C570.801 250.736 570.733 250.937 570.733 251.193C570.733 251.543 570.862 251.807 571.12 251.986C571.382 252.162 571.713 252.25 572.113 252.25ZM580.17 253V246.455H581.142V247.443H581.21C581.33 247.119 581.545 246.857 581.858 246.655C582.17 246.453 582.523 246.352 582.915 246.352C582.989 246.352 583.081 246.354 583.192 246.357C583.303 246.359 583.386 246.364 583.443 246.369V247.392C583.409 247.384 583.331 247.371 583.209 247.354C583.089 247.334 582.963 247.324 582.83 247.324C582.511 247.324 582.227 247.391 581.977 247.524C581.73 247.655 581.534 247.837 581.389 248.07C581.247 248.3 581.176 248.562 581.176 248.858V253H580.17ZM584.635 253V246.455H585.641V253H584.635ZM585.147 245.364C584.951 245.364 584.782 245.297 584.64 245.163C584.5 245.03 584.431 244.869 584.431 244.682C584.431 244.494 584.5 244.334 584.64 244.2C584.782 244.067 584.951 244 585.147 244C585.343 244 585.51 244.067 585.65 244.2C585.792 244.334 585.863 244.494 585.863 244.682C585.863 244.869 585.792 245.03 585.65 245.163C585.51 245.297 585.343 245.364 585.147 245.364ZM589.955 253.136C589.409 253.136 588.928 252.999 588.51 252.723C588.092 252.445 587.766 252.053 587.53 251.547C587.294 251.038 587.176 250.438 587.176 249.744C587.176 249.057 587.294 248.46 587.53 247.955C587.766 247.449 588.094 247.058 588.514 246.783C588.935 246.507 589.42 246.369 589.972 246.369C590.398 246.369 590.734 246.44 590.982 246.582C591.232 246.722 591.422 246.881 591.553 247.06C591.686 247.236 591.79 247.381 591.864 247.494H591.949V244.273H592.955V253H591.983V251.994H591.864C591.79 252.114 591.685 252.264 591.548 252.446C591.412 252.625 591.217 252.786 590.964 252.928C590.712 253.067 590.375 253.136 589.955 253.136ZM590.091 252.233C590.494 252.233 590.835 252.128 591.114 251.918C591.392 251.705 591.604 251.411 591.749 251.036C591.893 250.658 591.966 250.222 591.966 249.727C591.966 249.239 591.895 248.811 591.753 248.445C591.611 248.075 591.401 247.788 591.122 247.584C590.844 247.376 590.5 247.273 590.091 247.273C589.665 247.273 589.31 247.382 589.026 247.601C588.744 247.817 588.533 248.111 588.391 248.483C588.251 248.852 588.182 249.267 588.182 249.727C588.182 250.193 588.253 250.616 588.395 250.997C588.54 251.375 588.753 251.676 589.034 251.901C589.318 252.122 589.67 252.233 590.091 252.233ZM597.68 253.136C597.05 253.136 596.506 252.997 596.048 252.719C595.594 252.438 595.243 252.045 594.996 251.543C594.751 251.037 594.629 250.449 594.629 249.778C594.629 249.108 594.751 248.517 594.996 248.006C595.243 247.491 595.587 247.091 596.027 246.804C596.47 246.514 596.987 246.369 597.578 246.369C597.919 246.369 598.256 246.426 598.588 246.54C598.92 246.653 599.223 246.838 599.496 247.094C599.768 247.347 599.986 247.682 600.148 248.099C600.31 248.517 600.391 249.031 600.391 249.642V250.068H595.345V249.199H599.368C599.368 248.83 599.294 248.5 599.146 248.21C599.001 247.92 598.794 247.692 598.524 247.524C598.257 247.357 597.942 247.273 597.578 247.273C597.178 247.273 596.831 247.372 596.538 247.571C596.249 247.767 596.026 248.023 595.869 248.338C595.713 248.653 595.635 248.991 595.635 249.352V249.932C595.635 250.426 595.72 250.845 595.891 251.189C596.064 251.53 596.304 251.79 596.611 251.969C596.918 252.145 597.274 252.233 597.68 252.233C597.945 252.233 598.183 252.196 598.396 252.122C598.612 252.045 598.798 251.932 598.955 251.781C599.111 251.628 599.232 251.437 599.317 251.21L600.288 251.483C600.186 251.812 600.014 252.102 599.773 252.352C599.531 252.599 599.233 252.793 598.878 252.932C598.523 253.068 598.124 253.136 597.68 253.136Z" fill="black"/>
<rect x="264" y="317" width="211" height="61" rx="25" fill="#FFC007"/>
<path d="M406.5 402L380.5 367.5L366.5 376L406.5 402Z" fill="#FDC104"/>
<circle cx="299.5" cy="347.5" r="15.5" fill="white"/>
<path d="M332.455 344H331.398C331.335 343.696 331.226 343.429 331.07 343.199C330.916 342.969 330.729 342.776 330.507 342.619C330.288 342.46 330.045 342.341 329.778 342.261C329.511 342.182 329.233 342.142 328.943 342.142C328.415 342.142 327.936 342.276 327.507 342.543C327.081 342.81 326.741 343.203 326.489 343.723C326.239 344.243 326.114 344.881 326.114 345.636C326.114 346.392 326.239 347.03 326.489 347.55C326.741 348.07 327.081 348.463 327.507 348.73C327.936 348.997 328.415 349.131 328.943 349.131C329.233 349.131 329.511 349.091 329.778 349.011C330.045 348.932 330.288 348.814 330.507 348.658C330.729 348.499 330.916 348.304 331.07 348.074C331.226 347.841 331.335 347.574 331.398 347.273H332.455C332.375 347.719 332.23 348.118 332.02 348.47C331.81 348.822 331.548 349.122 331.236 349.369C330.923 349.614 330.572 349.8 330.183 349.928C329.797 350.055 329.384 350.119 328.943 350.119C328.199 350.119 327.537 349.938 326.957 349.574C326.378 349.21 325.922 348.693 325.589 348.023C325.257 347.352 325.091 346.557 325.091 345.636C325.091 344.716 325.257 343.92 325.589 343.25C325.922 342.58 326.378 342.062 326.957 341.699C327.537 341.335 328.199 341.153 328.943 341.153C329.384 341.153 329.797 341.217 330.183 341.345C330.572 341.473 330.923 341.661 331.236 341.908C331.548 342.152 331.81 342.45 332.02 342.803C332.23 343.152 332.375 343.551 332.455 344ZM335.032 341.273V350H334.026V341.273H335.032ZM336.874 350V343.455H337.879V350H336.874ZM337.385 342.364C337.189 342.364 337.02 342.297 336.878 342.163C336.739 342.03 336.669 341.869 336.669 341.682C336.669 341.494 336.739 341.334 336.878 341.2C337.02 341.067 337.189 341 337.385 341C337.581 341 337.749 341.067 337.888 341.2C338.03 341.334 338.101 341.494 338.101 341.682C338.101 341.869 338.03 342.03 337.888 342.163C337.749 342.297 337.581 342.364 337.385 342.364ZM342.38 350.136C341.767 350.136 341.238 349.991 340.795 349.702C340.352 349.412 340.011 349.013 339.772 348.504C339.534 347.996 339.414 347.415 339.414 346.761C339.414 346.097 339.537 345.51 339.781 345.001C340.028 344.49 340.372 344.091 340.812 343.804C341.255 343.514 341.772 343.369 342.363 343.369C342.824 343.369 343.238 343.455 343.608 343.625C343.977 343.795 344.279 344.034 344.515 344.341C344.751 344.648 344.897 345.006 344.954 345.415H343.949C343.872 345.116 343.701 344.852 343.437 344.622C343.176 344.389 342.824 344.273 342.38 344.273C341.988 344.273 341.645 344.375 341.349 344.58C341.056 344.781 340.828 345.067 340.663 345.436C340.501 345.803 340.42 346.233 340.42 346.727C340.42 347.233 340.5 347.673 340.659 348.048C340.821 348.423 341.048 348.714 341.341 348.922C341.636 349.129 341.983 349.233 342.38 349.233C342.642 349.233 342.879 349.188 343.092 349.097C343.305 349.006 343.485 348.875 343.633 348.705C343.781 348.534 343.886 348.33 343.949 348.091H344.954C344.897 348.477 344.757 348.825 344.532 349.135C344.311 349.442 344.017 349.686 343.65 349.868C343.287 350.047 342.863 350.136 342.38 350.136ZM347.362 347.614L347.345 346.369H347.549L350.413 343.455H351.657L348.606 346.54H348.521L347.362 347.614ZM346.424 350V341.273H347.43V350H346.424ZM350.583 350L348.027 346.761L348.743 346.062L351.862 350H350.583ZM358.986 350.136C358.395 350.136 357.876 349.996 357.43 349.714C356.987 349.433 356.641 349.04 356.391 348.534C356.143 348.028 356.02 347.437 356.02 346.761C356.02 346.08 356.143 345.484 356.391 344.976C356.641 344.467 356.987 344.072 357.43 343.791C357.876 343.51 358.395 343.369 358.986 343.369C359.577 343.369 360.094 343.51 360.537 343.791C360.983 344.072 361.33 344.467 361.577 344.976C361.827 345.484 361.952 346.08 361.952 346.761C361.952 347.437 361.827 348.028 361.577 348.534C361.33 349.04 360.983 349.433 360.537 349.714C360.094 349.996 359.577 350.136 358.986 350.136ZM358.986 349.233C359.435 349.233 359.804 349.118 360.094 348.888C360.384 348.658 360.598 348.355 360.737 347.98C360.876 347.605 360.946 347.199 360.946 346.761C360.946 346.324 360.876 345.916 360.737 345.538C360.598 345.161 360.384 344.855 360.094 344.622C359.804 344.389 359.435 344.273 358.986 344.273C358.537 344.273 358.168 344.389 357.878 344.622C357.588 344.855 357.374 345.161 357.234 345.538C357.095 345.916 357.026 346.324 357.026 346.761C357.026 347.199 357.095 347.605 357.234 347.98C357.374 348.355 357.588 348.658 357.878 348.888C358.168 349.118 358.537 349.233 358.986 349.233ZM364.493 346.062V350H363.487V343.455H364.458V344.477H364.544C364.697 344.145 364.93 343.878 365.243 343.676C365.555 343.472 365.958 343.369 366.453 343.369C366.896 343.369 367.284 343.46 367.616 343.642C367.949 343.821 368.207 344.094 368.392 344.46C368.576 344.824 368.669 345.284 368.669 345.841V350H367.663V345.909C367.663 345.395 367.529 344.994 367.262 344.707C366.995 344.418 366.629 344.273 366.163 344.273C365.842 344.273 365.555 344.342 365.302 344.482C365.052 344.621 364.855 344.824 364.71 345.091C364.565 345.358 364.493 345.682 364.493 346.062ZM373.54 344V343.233C373.54 343 373.582 342.753 373.664 342.491C373.749 342.227 373.871 341.973 374.031 341.729C374.192 341.482 374.387 341.267 374.614 341.085L375.16 341.528C374.981 341.784 374.825 342.051 374.691 342.33C374.56 342.605 374.495 342.901 374.495 343.216V344H373.54ZM375.722 344V343.233C375.722 343 375.763 342.753 375.846 342.491C375.931 342.227 376.053 341.973 376.212 341.729C376.374 341.482 376.569 341.267 376.796 341.085L377.342 341.528C377.163 341.784 377.006 342.051 376.873 342.33C376.742 342.605 376.677 342.901 376.677 343.216V344H375.722ZM384.554 344C384.46 343.713 384.337 343.456 384.183 343.229C384.033 342.999 383.852 342.803 383.642 342.641C383.435 342.479 383.199 342.355 382.935 342.27C382.67 342.185 382.381 342.142 382.065 342.142C381.548 342.142 381.078 342.276 380.655 342.543C380.232 342.81 379.895 343.203 379.645 343.723C379.395 344.243 379.27 344.881 379.27 345.636C379.27 346.392 379.396 347.03 379.649 347.55C379.902 348.07 380.244 348.463 380.676 348.73C381.108 348.997 381.594 349.131 382.134 349.131C382.634 349.131 383.074 349.024 383.455 348.811C383.838 348.595 384.136 348.291 384.349 347.899C384.565 347.504 384.673 347.04 384.673 346.506L384.997 346.574H382.372V345.636H385.696V346.574C385.696 347.293 385.543 347.918 385.236 348.449C384.932 348.98 384.511 349.392 383.974 349.685C383.44 349.974 382.827 350.119 382.134 350.119C381.361 350.119 380.682 349.938 380.097 349.574C379.514 349.21 379.06 348.693 378.733 348.023C378.409 347.352 378.247 346.557 378.247 345.636C378.247 344.946 378.339 344.325 378.524 343.774C378.712 343.22 378.976 342.749 379.317 342.359C379.658 341.97 380.061 341.672 380.527 341.464C380.993 341.257 381.506 341.153 382.065 341.153C382.526 341.153 382.955 341.223 383.352 341.362C383.753 341.499 384.109 341.693 384.422 341.946C384.737 342.196 385 342.496 385.21 342.845C385.42 343.192 385.565 343.577 385.645 344H384.554ZM390.029 350.136C389.438 350.136 388.919 349.996 388.473 349.714C388.03 349.433 387.684 349.04 387.434 348.534C387.186 348.028 387.063 347.437 387.063 346.761C387.063 346.08 387.186 345.484 387.434 344.976C387.684 344.467 388.03 344.072 388.473 343.791C388.919 343.51 389.438 343.369 390.029 343.369C390.62 343.369 391.137 343.51 391.58 343.791C392.026 344.072 392.373 344.467 392.62 344.976C392.87 345.484 392.995 346.08 392.995 346.761C392.995 347.437 392.87 348.028 392.62 348.534C392.373 349.04 392.026 349.433 391.58 349.714C391.137 349.996 390.62 350.136 390.029 350.136ZM390.029 349.233C390.478 349.233 390.847 349.118 391.137 348.888C391.426 348.658 391.641 348.355 391.78 347.98C391.919 347.605 391.989 347.199 391.989 346.761C391.989 346.324 391.919 345.916 391.78 345.538C391.641 345.161 391.426 344.855 391.137 344.622C390.847 344.389 390.478 344.273 390.029 344.273C389.58 344.273 389.211 344.389 388.921 344.622C388.631 344.855 388.417 345.161 388.277 345.538C388.138 345.916 388.069 346.324 388.069 346.761C388.069 347.199 388.138 347.605 388.277 347.98C388.417 348.355 388.631 348.658 388.921 348.888C389.211 349.118 389.58 349.233 390.029 349.233ZM400.751 343.455V344.307H397.359V343.455H400.751ZM398.348 341.886H399.354V348.125C399.354 348.409 399.395 348.622 399.477 348.764C399.563 348.903 399.67 348.997 399.801 349.045C399.935 349.091 400.075 349.114 400.223 349.114C400.334 349.114 400.425 349.108 400.496 349.097C400.567 349.082 400.624 349.071 400.666 349.062L400.871 349.966C400.803 349.991 400.707 350.017 400.585 350.043C400.463 350.071 400.308 350.085 400.121 350.085C399.837 350.085 399.558 350.024 399.286 349.902C399.016 349.78 398.791 349.594 398.612 349.344C398.436 349.094 398.348 348.778 398.348 348.398V341.886ZM404.853 350.136C404.262 350.136 403.744 349.996 403.298 349.714C402.854 349.433 402.508 349.04 402.258 348.534C402.011 348.028 401.887 347.437 401.887 346.761C401.887 346.08 402.011 345.484 402.258 344.976C402.508 344.467 402.854 344.072 403.298 343.791C403.744 343.51 404.262 343.369 404.853 343.369C405.444 343.369 405.961 343.51 406.404 343.791C406.85 344.072 407.197 344.467 407.444 344.976C407.694 345.484 407.819 346.08 407.819 346.761C407.819 347.437 407.694 348.028 407.444 348.534C407.197 349.04 406.85 349.433 406.404 349.714C405.961 349.996 405.444 350.136 404.853 350.136ZM404.853 349.233C405.302 349.233 405.671 349.118 405.961 348.888C406.251 348.658 406.465 348.355 406.604 347.98C406.744 347.605 406.813 347.199 406.813 346.761C406.813 346.324 406.744 345.916 406.604 345.538C406.465 345.161 406.251 344.855 405.961 344.622C405.671 344.389 405.302 344.273 404.853 344.273C404.404 344.273 404.035 344.389 403.745 344.622C403.455 344.855 403.241 345.161 403.102 345.538C402.962 345.916 402.893 346.324 402.893 346.761C402.893 347.199 402.962 347.605 403.102 347.98C403.241 348.355 403.455 348.658 403.745 348.888C404.035 349.118 404.404 349.233 404.853 349.233ZM412.865 350V341.273H415.814C416.496 341.273 417.056 341.389 417.493 341.622C417.931 341.852 418.255 342.169 418.465 342.572C418.675 342.976 418.78 343.435 418.78 343.949C418.78 344.463 418.675 344.919 418.465 345.317C418.255 345.714 417.932 346.027 417.498 346.254C417.063 346.479 416.507 346.591 415.831 346.591H413.445V345.636H415.797C416.263 345.636 416.638 345.568 416.922 345.432C417.209 345.295 417.417 345.102 417.544 344.852C417.675 344.599 417.74 344.298 417.74 343.949C417.74 343.599 417.675 343.294 417.544 343.033C417.414 342.771 417.205 342.57 416.918 342.428C416.631 342.283 416.252 342.21 415.78 342.21H413.922V350H412.865ZM416.973 346.08L419.121 350H417.894L415.78 346.08H416.973ZM422.994 350.136C422.403 350.136 421.884 349.996 421.438 349.714C420.995 349.433 420.648 349.04 420.398 348.534C420.151 348.028 420.028 347.437 420.028 346.761C420.028 346.08 420.151 345.484 420.398 344.976C420.648 344.467 420.995 344.072 421.438 343.791C421.884 343.51 422.403 343.369 422.994 343.369C423.585 343.369 424.102 343.51 424.545 343.791C424.991 344.072 425.337 344.467 425.585 344.976C425.835 345.484 425.96 346.08 425.96 346.761C425.96 347.437 425.835 348.028 425.585 348.534C425.337 349.04 424.991 349.433 424.545 349.714C424.102 349.996 423.585 350.136 422.994 350.136ZM422.994 349.233C423.442 349.233 423.812 349.118 424.102 348.888C424.391 348.658 424.606 348.355 424.745 347.98C424.884 347.605 424.954 347.199 424.954 346.761C424.954 346.324 424.884 345.916 424.745 345.538C424.606 345.161 424.391 344.855 424.102 344.622C423.812 344.389 423.442 344.273 422.994 344.273C422.545 344.273 422.175 344.389 421.886 344.622C421.596 344.855 421.381 345.161 421.242 345.538C421.103 345.916 421.033 346.324 421.033 346.761C421.033 347.199 421.103 347.605 421.242 347.98C421.381 348.355 421.596 348.658 421.886 348.888C422.175 349.118 422.545 349.233 422.994 349.233ZM431.62 347.324V343.455H432.625V350H431.62V348.892H431.551C431.398 349.224 431.159 349.507 430.836 349.74C430.512 349.97 430.103 350.085 429.608 350.085C429.199 350.085 428.836 349.996 428.517 349.817C428.199 349.635 427.949 349.362 427.767 348.999C427.586 348.632 427.495 348.17 427.495 347.614V343.455H428.5V347.545C428.5 348.023 428.634 348.403 428.901 348.688C429.171 348.972 429.515 349.114 429.932 349.114C430.182 349.114 430.436 349.05 430.695 348.922C430.956 348.794 431.175 348.598 431.351 348.334C431.53 348.07 431.62 347.733 431.62 347.324ZM437.314 343.455V344.307H433.922V343.455H437.314ZM434.911 341.886H435.916V348.125C435.916 348.409 435.957 348.622 436.04 348.764C436.125 348.903 436.233 348.997 436.364 349.045C436.497 349.091 436.638 349.114 436.786 349.114C436.896 349.114 436.987 349.108 437.058 349.097C437.129 349.082 437.186 349.071 437.229 349.062L437.433 349.966C437.365 349.991 437.27 350.017 437.148 350.043C437.026 350.071 436.871 350.085 436.683 350.085C436.399 350.085 436.121 350.024 435.848 349.902C435.578 349.78 435.354 349.594 435.175 349.344C434.999 349.094 434.911 348.778 434.911 348.398V341.886ZM441.501 350.136C440.87 350.136 440.326 349.997 439.869 349.719C439.414 349.438 439.063 349.045 438.816 348.543C438.572 348.037 438.45 347.449 438.45 346.778C438.45 346.108 438.572 345.517 438.816 345.006C439.063 344.491 439.407 344.091 439.847 343.804C440.29 343.514 440.808 343.369 441.398 343.369C441.739 343.369 442.076 343.426 442.408 343.54C442.741 343.653 443.043 343.838 443.316 344.094C443.589 344.347 443.806 344.682 443.968 345.099C444.13 345.517 444.211 346.031 444.211 346.642V347.068H439.165V346.199H443.188C443.188 345.83 443.114 345.5 442.967 345.21C442.822 344.92 442.614 344.692 442.344 344.524C442.077 344.357 441.762 344.273 441.398 344.273C440.998 344.273 440.651 344.372 440.359 344.571C440.069 344.767 439.846 345.023 439.69 345.338C439.533 345.653 439.455 345.991 439.455 346.352V346.932C439.455 347.426 439.54 347.845 439.711 348.189C439.884 348.53 440.124 348.79 440.431 348.969C440.738 349.145 441.094 349.233 441.501 349.233C441.765 349.233 442.004 349.196 442.217 349.122C442.433 349.045 442.619 348.932 442.775 348.781C442.931 348.628 443.052 348.437 443.137 348.21L444.109 348.483C444.006 348.812 443.835 349.102 443.593 349.352C443.352 349.599 443.053 349.793 442.698 349.932C442.343 350.068 441.944 350.136 441.501 350.136ZM450.377 344.92L449.474 345.176C449.417 345.026 449.333 344.879 449.222 344.737C449.114 344.592 448.967 344.473 448.779 344.379C448.592 344.286 448.352 344.239 448.059 344.239C447.658 344.239 447.325 344.331 447.058 344.516C446.793 344.697 446.661 344.929 446.661 345.21C446.661 345.46 446.752 345.658 446.934 345.803C447.116 345.947 447.4 346.068 447.786 346.165L448.758 346.403C449.343 346.545 449.779 346.763 450.066 347.055C450.353 347.345 450.496 347.719 450.496 348.176C450.496 348.551 450.388 348.886 450.173 349.182C449.96 349.477 449.661 349.71 449.278 349.881C448.894 350.051 448.448 350.136 447.94 350.136C447.272 350.136 446.719 349.991 446.282 349.702C445.844 349.412 445.567 348.989 445.451 348.432L446.406 348.193C446.496 348.545 446.668 348.81 446.921 348.986C447.177 349.162 447.511 349.25 447.923 349.25C448.391 349.25 448.763 349.151 449.039 348.952C449.317 348.75 449.457 348.509 449.457 348.227C449.457 348 449.377 347.81 449.218 347.656C449.059 347.5 448.815 347.384 448.485 347.307L447.394 347.051C446.795 346.909 446.354 346.689 446.073 346.391C445.795 346.089 445.656 345.713 445.656 345.261C445.656 344.892 445.759 344.565 445.967 344.281C446.177 343.997 446.462 343.774 446.823 343.612C447.187 343.45 447.599 343.369 448.059 343.369C448.707 343.369 449.215 343.511 449.585 343.795C449.957 344.08 450.221 344.455 450.377 344.92ZM453.34 341.273L453.255 347.545H452.266L452.181 341.273H453.34ZM452.76 350.068C452.55 350.068 452.37 349.993 452.219 349.842C452.069 349.692 451.993 349.511 451.993 349.301C451.993 349.091 452.069 348.911 452.219 348.76C452.37 348.609 452.55 348.534 452.76 348.534C452.971 348.534 453.151 348.609 453.301 348.76C453.452 348.911 453.527 349.091 453.527 349.301C453.527 349.44 453.492 349.568 453.421 349.685C453.353 349.801 453.26 349.895 453.144 349.966C453.03 350.034 452.902 350.068 452.76 350.068ZM456.237 341.273V342.04C456.237 342.273 456.194 342.521 456.109 342.786C456.026 343.047 455.904 343.301 455.742 343.548C455.583 343.793 455.39 344.006 455.163 344.188L454.617 343.744C454.796 343.489 454.951 343.223 455.082 342.947C455.215 342.669 455.282 342.372 455.282 342.057V341.273H456.237ZM458.418 341.273V342.04C458.418 342.273 458.376 342.521 458.29 342.786C458.208 343.047 458.086 343.301 457.924 343.548C457.765 343.793 457.572 344.006 457.344 344.188L456.799 343.744C456.978 343.489 457.133 343.223 457.263 342.947C457.397 342.669 457.464 342.372 457.464 342.057V341.273H458.418Z" fill="black"/>
</g>
<defs>
<filter id="filter0_d_21_2" x="0" y="0" width="857" height="901" filterUnits="userSpaceOnUse" color-interpolation-filters="sRGB">
<feFlood flood-opacity="0" result="BackgroundImageFix"/>
<feColorMatrix in="SourceAlpha" type="matrix" values="0 0 0 0 0 0 0 0 0 0 0 0 0 0 0 0 0 0 127 0" result="hardAlpha"/>
<feOffset dy="4"/>
<feGaussianBlur stdDeviation="2"/>
<feComposite in2="hardAlpha" operator="out"/>
<feColorMatrix type="matrix" values="0 0 0 0 0 0 0 0 0 0 0 0 0 0 0 0 0 0 0.25 0"/>
<feBlend mode="normal" in2="BackgroundImageFix" result="effect1_dropShadow_21_2"/>
<feBlend mode="normal" in="SourceGraphic" in2="effect1_dropShadow_21_2" result="shape"/>
</filter>
</defs>
</svg>
