<svg width="671" height="706" viewBox="0 0 671 706" fill="none" xmlns="http://www.w3.org/2000/svg">
<g filter="url(#filter0_d_75_106)">
<circle cx="101.224" cy="525.168" r="97.2244" fill="#FDE2E3"/>
<circle cx="203.525" cy="545.472" r="97.2244" fill="#FDE2E3"/>
<circle cx="368.689" cy="567.728" r="129.633" fill="#FDE2E3"/>
<circle cx="537.367" cy="557.576" r="129.633" fill="#FDE2E3"/>
<rect x="23.5229" y="568.509" width="616.145" height="118.7" fill="#FDE2E3"/>
<circle cx="149.641" cy="284.645" r="30.0654" fill="#A7112A"/>
<circle cx="147.689" cy="334.233" r="40.6078" fill="#A7112A"/>
<circle cx="147.689" cy="409.201" r="53.8834" fill="#A7112A"/>
<line x1="149.189" y1="309.244" x2="149.189" y2="516.968" stroke="#F8F8F9" stroke-width="3"/>
<line x1="147.868" y1="334.034" x2="141.621" y2="319.197" stroke="#FDE2E3" stroke-width="3"/>
<line x1="147.868" y1="443.363" x2="138.777" y2="421.771" stroke="#F8F8F9" stroke-width="3"/>
<line x1="147.312" y1="393.221" x2="162.206" y2="375.137" stroke="#FDE2E3" stroke-width="3"/>
<circle cx="559.624" cy="292.454" r="30.0654" fill="#A7112A"/>
<circle cx="557.671" cy="342.042" r="40.6078" fill="#A7112A"/>
<circle cx="557.671" cy="417.011" r="53.8834" fill="#A7112A"/>
<line x1="559.171" y1="317.053" x2="559.171" y2="524.777" stroke="#F8F8F9" stroke-width="3"/>
<line x1="557.851" y1="341.844" x2="551.603" y2="327.006" stroke="#FDE2E3" stroke-width="3"/>
<line x1="557.851" y1="451.172" x2="548.759" y2="429.581" stroke="#F8F8F9" stroke-width="3"/>
<line x1="557.294" y1="401.03" x2="572.188" y2="382.946" stroke="#FDE2E3" stroke-width="3"/>
<circle cx="411.249" cy="427.553" r="30.0654" fill="#FDA0A6"/>
<circle cx="410.859" cy="467.77" r="40.6078" fill="#FDA0A6"/>
<circle cx="410.859" cy="527.901" r="53.8834" fill="#FDA0A6"/>
<line x1="412.359" y1="427.943" x2="412.359" y2="635.668" stroke="#F8F8F9" stroke-width="3"/>
<line x1="411.038" y1="452.734" x2="404.791" y2="437.897" stroke="#FDE2E3" stroke-width="3"/>
<line x1="411.038" y1="562.063" x2="401.947" y2="540.471" stroke="#FDE2E3" stroke-width="3"/>
<line x1="413.05" y1="511.921" x2="427.943" y2="493.837" stroke="#F8F8F9" stroke-width="3"/>
<rect x="261.641" y="1.5" width="228.933" height="391.364" rx="23.5" fill="white" stroke="#232A30" stroke-width="3"/>
<path d="M263.265 26.1237C263.265 13.4211 273.562 3.12366 286.265 3.12366H464.731C478.539 3.12366 489.731 14.3165 489.731 28.1237V47.636H263.265V26.1237Z" fill="#FDA0A6"/>
<circle cx="319.491" cy="117.138" r="40.6696" stroke="#A7112A" stroke-width="3"/>
<rect x="363.223" y="170.24" width="164.774" height="47.636" rx="23.818" fill="#232A30"/>
<path d="M443.267 236.618L463.571 209.677L474.504 216.315L443.267 236.618Z" fill="#232A30"/>
<circle cx="390.945" cy="194.058" r="11.6042" fill="#FDA0A6" stroke="#FE6602"/>
<path d="M427.193 182.474V191.201H426.136V182.474H427.193ZM433.557 187.264V191.201H432.551V184.656H433.522V185.679H433.608C433.761 185.346 433.994 185.079 434.307 184.878C434.619 184.673 435.022 184.571 435.517 184.571C435.96 184.571 436.348 184.662 436.68 184.843C437.013 185.022 437.271 185.295 437.456 185.662C437.64 186.025 437.733 186.486 437.733 187.042V191.201H436.727V187.111C436.727 186.596 436.593 186.196 436.326 185.909C436.059 185.619 435.693 185.474 435.227 185.474C434.906 185.474 434.619 185.544 434.366 185.683C434.116 185.822 433.919 186.025 433.774 186.292C433.629 186.559 433.557 186.883 433.557 187.264ZM442.315 191.338C441.684 191.338 441.14 191.199 440.683 190.92C440.228 190.639 439.877 190.247 439.63 189.744C439.386 189.238 439.264 188.65 439.264 187.98C439.264 187.309 439.386 186.718 439.63 186.207C439.877 185.693 440.221 185.292 440.661 185.005C441.104 184.716 441.622 184.571 442.212 184.571C442.553 184.571 442.89 184.628 443.222 184.741C443.555 184.855 443.857 185.039 444.13 185.295C444.403 185.548 444.62 185.883 444.782 186.301C444.944 186.718 445.025 187.233 445.025 187.843V188.27H439.979V187.4H444.002C444.002 187.031 443.928 186.701 443.781 186.412C443.636 186.122 443.428 185.893 443.158 185.726C442.891 185.558 442.576 185.474 442.212 185.474C441.812 185.474 441.465 185.574 441.173 185.772C440.883 185.968 440.66 186.224 440.504 186.539C440.347 186.855 440.269 187.193 440.269 187.554V188.133C440.269 188.628 440.354 189.047 440.525 189.39C440.698 189.731 440.938 189.991 441.245 190.17C441.552 190.346 441.908 190.434 442.315 190.434C442.579 190.434 442.818 190.397 443.031 190.324C443.247 190.247 443.433 190.133 443.589 189.983C443.745 189.829 443.866 189.639 443.951 189.412L444.923 189.684C444.82 190.014 444.649 190.304 444.407 190.554C444.166 190.801 443.867 190.994 443.512 191.133C443.157 191.27 442.758 191.338 442.315 191.338ZM449.299 191.338C448.668 191.338 448.124 191.199 447.667 190.92C447.212 190.639 446.862 190.247 446.614 189.744C446.37 189.238 446.248 188.65 446.248 187.98C446.248 187.309 446.37 186.718 446.614 186.207C446.862 185.693 447.205 185.292 447.646 185.005C448.089 184.716 448.606 184.571 449.197 184.571C449.538 184.571 449.874 184.628 450.207 184.741C450.539 184.855 450.842 185.039 451.114 185.295C451.387 185.548 451.604 185.883 451.766 186.301C451.928 186.718 452.009 187.233 452.009 187.843V188.27H446.964V187.4H450.987C450.987 187.031 450.913 186.701 450.765 186.412C450.62 186.122 450.413 185.893 450.143 185.726C449.876 185.558 449.56 185.474 449.197 185.474C448.796 185.474 448.45 185.574 448.157 185.772C447.867 185.968 447.644 186.224 447.488 186.539C447.332 186.855 447.254 187.193 447.254 187.554V188.133C447.254 188.628 447.339 189.047 447.509 189.39C447.683 189.731 447.923 189.991 448.229 190.17C448.536 190.346 448.893 190.434 449.299 190.434C449.563 190.434 449.802 190.397 450.015 190.324C450.231 190.247 450.417 190.133 450.573 189.983C450.729 189.829 450.85 189.639 450.935 189.412L451.907 189.684C451.805 190.014 451.633 190.304 451.391 190.554C451.15 190.801 450.852 190.994 450.497 191.133C450.141 191.27 449.742 191.338 449.299 191.338ZM456.011 191.338C455.465 191.338 454.984 191.2 454.566 190.924C454.149 190.646 453.822 190.254 453.586 189.748C453.35 189.24 453.232 188.639 453.232 187.946C453.232 187.258 453.35 186.662 453.586 186.156C453.822 185.65 454.15 185.26 454.57 184.984C454.991 184.709 455.477 184.571 456.028 184.571C456.454 184.571 456.791 184.642 457.038 184.784C457.288 184.923 457.478 185.082 457.609 185.261C457.742 185.437 457.846 185.582 457.92 185.696H458.005V182.474H459.011V191.201H458.039V190.196H457.92C457.846 190.315 457.741 190.466 457.604 190.647C457.468 190.826 457.274 190.987 457.021 191.129C456.768 191.268 456.431 191.338 456.011 191.338ZM456.147 190.434C456.551 190.434 456.891 190.329 457.17 190.119C457.448 189.906 457.66 189.612 457.805 189.237C457.95 188.859 458.022 188.423 458.022 187.929C458.022 187.44 457.951 187.012 457.809 186.646C457.667 186.277 457.457 185.99 457.178 185.785C456.9 185.578 456.556 185.474 456.147 185.474C455.721 185.474 455.366 185.584 455.082 185.802C454.801 186.018 454.589 186.312 454.447 186.684C454.308 187.054 454.238 187.468 454.238 187.929C454.238 188.395 454.309 188.818 454.451 189.199C454.596 189.576 454.809 189.878 455.09 190.102C455.374 190.324 455.727 190.434 456.147 190.434ZM466.293 191.355C465.879 191.355 465.502 191.277 465.164 191.12C464.826 190.961 464.558 190.733 464.359 190.434C464.16 190.133 464.06 189.77 464.06 189.343C464.06 188.968 464.134 188.664 464.282 188.432C464.43 188.196 464.627 188.011 464.874 187.878C465.122 187.744 465.394 187.645 465.693 187.579C465.994 187.511 466.296 187.457 466.6 187.417C466.998 187.366 467.32 187.328 467.568 187.302C467.818 187.274 467.999 187.227 468.113 187.162C468.229 187.096 468.288 186.983 468.288 186.821V186.787C468.288 186.366 468.173 186.039 467.943 185.807C467.715 185.574 467.37 185.457 466.907 185.457C466.427 185.457 466.051 185.562 465.778 185.772C465.505 185.983 465.313 186.207 465.202 186.446L464.248 186.105C464.418 185.707 464.646 185.397 464.93 185.176C465.217 184.951 465.529 184.795 465.867 184.707C466.208 184.616 466.543 184.571 466.873 184.571C467.083 184.571 467.325 184.596 467.597 184.647C467.873 184.696 468.139 184.797 468.394 184.95C468.653 185.103 468.867 185.335 469.038 185.645C469.208 185.954 469.293 186.369 469.293 186.889V191.201H468.288V190.315H468.237C468.168 190.457 468.055 190.609 467.896 190.771C467.737 190.933 467.525 191.071 467.261 191.184C466.997 191.298 466.674 191.355 466.293 191.355ZM466.447 190.451C466.845 190.451 467.18 190.373 467.452 190.217C467.728 190.061 467.935 189.859 468.075 189.612C468.217 189.365 468.288 189.105 468.288 188.832V187.912C468.245 187.963 468.151 188.01 468.006 188.052C467.864 188.092 467.7 188.128 467.512 188.159C467.327 188.187 467.147 188.213 466.971 188.236C466.798 188.255 466.657 188.272 466.549 188.287C466.288 188.321 466.043 188.376 465.816 188.453C465.592 188.527 465.41 188.639 465.271 188.789C465.134 188.937 465.066 189.139 465.066 189.395C465.066 189.744 465.195 190.008 465.454 190.187C465.715 190.363 466.046 190.451 466.447 190.451ZM449.379 206.201V199.656H450.351V200.645H450.419C450.538 200.321 450.754 200.058 451.066 199.856C451.379 199.655 451.731 199.554 452.123 199.554C452.197 199.554 452.29 199.555 452.4 199.558C452.511 199.561 452.595 199.565 452.652 199.571V200.593C452.618 200.585 452.54 200.572 452.417 200.555C452.298 200.535 452.172 200.525 452.038 200.525C451.72 200.525 451.436 200.592 451.186 200.726C450.939 200.856 450.743 201.038 450.598 201.271C450.456 201.501 450.385 201.764 450.385 202.059V206.201H449.379ZM453.844 206.201V199.656H454.85V206.201H453.844ZM454.355 198.565C454.159 198.565 453.99 198.498 453.848 198.365C453.709 198.231 453.639 198.071 453.639 197.883C453.639 197.696 453.709 197.535 453.848 197.402C453.99 197.268 454.159 197.201 454.355 197.201C454.551 197.201 454.719 197.268 454.858 197.402C455 197.535 455.071 197.696 455.071 197.883C455.071 198.071 455 198.231 454.858 198.365C454.719 198.498 454.551 198.565 454.355 198.565ZM459.163 206.338C458.618 206.338 458.136 206.2 457.718 205.924C457.301 205.646 456.974 205.254 456.738 204.748C456.503 204.24 456.385 203.639 456.385 202.946C456.385 202.258 456.503 201.662 456.738 201.156C456.974 200.65 457.302 200.26 457.723 199.984C458.143 199.709 458.629 199.571 459.18 199.571C459.606 199.571 459.943 199.642 460.19 199.784C460.44 199.923 460.63 200.082 460.761 200.261C460.895 200.437 460.998 200.582 461.072 200.696H461.157V197.474H462.163V206.201H461.191V205.196H461.072C460.998 205.315 460.893 205.466 460.757 205.647C460.62 205.826 460.426 205.987 460.173 206.129C459.92 206.268 459.584 206.338 459.163 206.338ZM459.299 205.434C459.703 205.434 460.044 205.329 460.322 205.119C460.601 204.906 460.812 204.612 460.957 204.237C461.102 203.859 461.174 203.423 461.174 202.929C461.174 202.44 461.103 202.012 460.961 201.646C460.819 201.277 460.609 200.99 460.331 200.785C460.052 200.578 459.709 200.474 459.299 200.474C458.873 200.474 458.518 200.584 458.234 200.802C457.953 201.018 457.741 201.312 457.599 201.684C457.46 202.054 457.39 202.468 457.39 202.929C457.39 203.395 457.461 203.818 457.603 204.199C457.748 204.576 457.961 204.878 458.243 205.102C458.527 205.324 458.879 205.434 459.299 205.434ZM466.889 206.338C466.258 206.338 465.714 206.199 465.257 205.92C464.802 205.639 464.451 205.247 464.204 204.744C463.96 204.238 463.838 203.65 463.838 202.98C463.838 202.309 463.96 201.718 464.204 201.207C464.451 200.693 464.795 200.292 465.236 200.005C465.679 199.716 466.196 199.571 466.787 199.571C467.128 199.571 467.464 199.628 467.797 199.741C468.129 199.855 468.432 200.039 468.704 200.295C468.977 200.548 469.194 200.883 469.356 201.301C469.518 201.718 469.599 202.233 469.599 202.843V203.27H464.554V202.4H468.576C468.576 202.031 468.503 201.701 468.355 201.412C468.21 201.122 468.003 200.893 467.733 200.726C467.466 200.558 467.15 200.474 466.787 200.474C466.386 200.474 466.04 200.574 465.747 200.772C465.457 200.968 465.234 201.224 465.078 201.539C464.922 201.855 464.843 202.193 464.843 202.554V203.133C464.843 203.628 464.929 204.047 465.099 204.39C465.272 204.731 465.513 204.991 465.819 205.17C466.126 205.346 466.483 205.434 466.889 205.434C467.153 205.434 467.392 205.397 467.605 205.324C467.821 205.247 468.007 205.133 468.163 204.983C468.319 204.829 468.44 204.639 468.525 204.412L469.497 204.684C469.395 205.014 469.223 205.304 468.981 205.554C468.74 205.801 468.441 205.994 468.086 206.133C467.731 206.27 467.332 206.338 466.889 206.338Z" fill="#F8F8F9"/>
<rect x="207.039" y="247.551" width="164.774" height="47.636" rx="23.818" fill="#232A30"/>
<path d="M318.32 313.929L298.016 286.988L287.083 293.625L318.32 313.929Z" fill="#232A30"/>
<circle cx="234.761" cy="271.369" r="12.1042" fill="#FDE2E3"/>
<path d="M283.339 260.951H282.282C282.22 260.647 282.11 260.379 281.954 260.149C281.801 259.919 281.613 259.726 281.392 259.57C281.173 259.411 280.93 259.291 280.663 259.212C280.396 259.132 280.117 259.093 279.828 259.093C279.299 259.093 278.821 259.226 278.392 259.493C277.965 259.76 277.626 260.154 277.373 260.674C277.123 261.193 276.998 261.831 276.998 262.587C276.998 263.343 277.123 263.98 277.373 264.5C277.626 265.02 277.965 265.414 278.392 265.681C278.821 265.948 279.299 266.081 279.828 266.081C280.117 266.081 280.396 266.041 280.663 265.962C280.93 265.882 281.173 265.764 281.392 265.608C281.613 265.449 281.801 265.254 281.954 265.024C282.11 264.791 282.22 264.524 282.282 264.223H283.339C283.259 264.669 283.115 265.068 282.904 265.421C282.694 265.773 282.433 266.073 282.12 266.32C281.808 266.564 281.457 266.75 281.068 266.878C280.681 267.006 280.268 267.07 279.828 267.07C279.083 267.07 278.421 266.888 277.842 266.524C277.262 266.161 276.806 265.644 276.474 264.973C276.142 264.303 275.975 263.507 275.975 262.587C275.975 261.666 276.142 260.871 276.474 260.201C276.806 259.53 277.262 259.013 277.842 258.649C278.421 258.286 279.083 258.104 279.828 258.104C280.268 258.104 280.681 258.168 281.068 258.296C281.457 258.424 281.808 258.611 282.12 258.858C282.433 259.102 282.694 259.401 282.904 259.753C283.115 260.102 283.259 260.502 283.339 260.951ZM285.916 258.223V266.951H284.91V258.223H285.916ZM287.758 266.951V260.405H288.764V266.951H287.758ZM288.269 259.314C288.073 259.314 287.904 259.247 287.762 259.114C287.623 258.98 287.554 258.82 287.554 258.632C287.554 258.445 287.623 258.284 287.762 258.151C287.904 258.017 288.073 257.951 288.269 257.951C288.465 257.951 288.633 258.017 288.772 258.151C288.914 258.284 288.985 258.445 288.985 258.632C288.985 258.82 288.914 258.98 288.772 259.114C288.633 259.247 288.465 259.314 288.269 259.314ZM293.265 267.087C292.651 267.087 292.123 266.942 291.68 266.652C291.236 266.362 290.895 265.963 290.657 265.455C290.418 264.946 290.299 264.365 290.299 263.712C290.299 263.047 290.421 262.46 290.665 261.952C290.913 261.441 291.256 261.041 291.697 260.754C292.14 260.465 292.657 260.32 293.248 260.32C293.708 260.32 294.123 260.405 294.492 260.576C294.861 260.746 295.164 260.985 295.4 261.291C295.636 261.598 295.782 261.956 295.839 262.365H294.833C294.756 262.067 294.586 261.803 294.322 261.573C294.06 261.34 293.708 261.223 293.265 261.223C292.873 261.223 292.529 261.326 292.234 261.53C291.941 261.732 291.712 262.017 291.547 262.387C291.386 262.753 291.305 263.183 291.305 263.678C291.305 264.183 291.384 264.624 291.543 264.999C291.705 265.374 291.932 265.665 292.225 265.872C292.52 266.08 292.867 266.183 293.265 266.183C293.526 266.183 293.763 266.138 293.976 266.047C294.19 265.956 294.37 265.826 294.518 265.655C294.665 265.485 294.77 265.28 294.833 265.041H295.839C295.782 265.428 295.641 265.776 295.417 266.085C295.195 266.392 294.901 266.637 294.535 266.818C294.171 266.997 293.748 267.087 293.265 267.087ZM298.246 264.564L298.229 263.32H298.434L301.297 260.405H302.542L299.491 263.49H299.405L298.246 264.564ZM297.309 266.951V258.223H298.315V266.951H297.309ZM301.468 266.951L298.911 263.712L299.627 263.013L302.746 266.951H301.468ZM309.87 267.087C309.279 267.087 308.761 266.946 308.315 266.665C307.872 266.384 307.525 265.99 307.275 265.485C307.028 264.979 306.904 264.388 306.904 263.712C306.904 263.03 307.028 262.435 307.275 261.926C307.525 261.418 307.872 261.023 308.315 260.742C308.761 260.46 309.279 260.32 309.87 260.32C310.461 260.32 310.978 260.46 311.421 260.742C311.867 261.023 312.214 261.418 312.461 261.926C312.711 262.435 312.836 263.03 312.836 263.712C312.836 264.388 312.711 264.979 312.461 265.485C312.214 265.99 311.867 266.384 311.421 266.665C310.978 266.946 310.461 267.087 309.87 267.087ZM309.87 266.183C310.319 266.183 310.688 266.068 310.978 265.838C311.268 265.608 311.482 265.306 311.622 264.931C311.761 264.556 311.83 264.149 311.83 263.712C311.83 263.274 311.761 262.867 311.622 262.489C311.482 262.111 311.268 261.806 310.978 261.573C310.688 261.34 310.319 261.223 309.87 261.223C309.421 261.223 309.052 261.34 308.762 261.573C308.473 261.806 308.258 262.111 308.119 262.489C307.98 262.867 307.91 263.274 307.91 263.712C307.91 264.149 307.98 264.556 308.119 264.931C308.258 265.306 308.473 265.608 308.762 265.838C309.052 266.068 309.421 266.183 309.87 266.183ZM315.377 263.013V266.951H314.371V260.405H315.343V261.428H315.428C315.582 261.095 315.815 260.828 316.127 260.627C316.44 260.422 316.843 260.32 317.337 260.32C317.78 260.32 318.168 260.411 318.501 260.593C318.833 260.772 319.092 261.044 319.276 261.411C319.461 261.774 319.553 262.235 319.553 262.791V266.951H318.547V262.86C318.547 262.345 318.414 261.945 318.147 261.658C317.88 261.368 317.513 261.223 317.047 261.223C316.726 261.223 316.44 261.293 316.187 261.432C315.937 261.571 315.739 261.774 315.594 262.041C315.449 262.308 315.377 262.632 315.377 263.013ZM324.425 260.951V260.183C324.425 259.951 324.466 259.703 324.549 259.442C324.634 259.178 324.756 258.924 324.915 258.679C325.077 258.432 325.272 258.218 325.499 258.036L326.044 258.479C325.865 258.735 325.709 259.002 325.576 259.28C325.445 259.556 325.38 259.851 325.38 260.166V260.951H324.425ZM326.607 260.951V260.183C326.607 259.951 326.648 259.703 326.73 259.442C326.816 259.178 326.938 258.924 327.097 258.679C327.259 258.432 327.453 258.218 327.681 258.036L328.226 258.479C328.047 258.735 327.891 259.002 327.757 259.28C327.627 259.556 327.561 259.851 327.561 260.166V260.951H326.607ZM335.438 260.951C335.345 260.664 335.221 260.406 335.068 260.179C334.917 259.949 334.737 259.753 334.527 259.591C334.319 259.429 334.083 259.306 333.819 259.22C333.555 259.135 333.265 259.093 332.95 259.093C332.433 259.093 331.963 259.226 331.539 259.493C331.116 259.76 330.779 260.154 330.529 260.674C330.279 261.193 330.154 261.831 330.154 262.587C330.154 263.343 330.281 263.98 330.534 264.5C330.786 265.02 331.129 265.414 331.561 265.681C331.992 265.948 332.478 266.081 333.018 266.081C333.518 266.081 333.958 265.975 334.339 265.762C334.723 265.546 335.021 265.242 335.234 264.85C335.45 264.455 335.558 263.99 335.558 263.456L335.882 263.524H333.257V262.587H336.58V263.524C336.58 264.243 336.427 264.868 336.12 265.399C335.816 265.931 335.396 266.343 334.859 266.635C334.325 266.925 333.711 267.07 333.018 267.07C332.245 267.07 331.566 266.888 330.981 266.524C330.399 266.161 329.944 265.644 329.617 264.973C329.294 264.303 329.132 263.507 329.132 262.587C329.132 261.897 329.224 261.276 329.409 260.725C329.596 260.171 329.86 259.699 330.201 259.31C330.542 258.921 330.946 258.622 331.411 258.415C331.877 258.208 332.39 258.104 332.95 258.104C333.41 258.104 333.839 258.174 334.237 258.313C334.637 258.449 334.994 258.644 335.306 258.897C335.622 259.147 335.884 259.446 336.095 259.796C336.305 260.142 336.45 260.527 336.529 260.951H335.438ZM340.913 267.087C340.322 267.087 339.804 266.946 339.358 266.665C338.915 266.384 338.568 265.99 338.318 265.485C338.071 264.979 337.947 264.388 337.947 263.712C337.947 263.03 338.071 262.435 338.318 261.926C338.568 261.418 338.915 261.023 339.358 260.742C339.804 260.46 340.322 260.32 340.913 260.32C341.504 260.32 342.021 260.46 342.464 260.742C342.91 261.023 343.257 261.418 343.504 261.926C343.754 262.435 343.879 263.03 343.879 263.712C343.879 264.388 343.754 264.979 343.504 265.485C343.257 265.99 342.91 266.384 342.464 266.665C342.021 266.946 341.504 267.087 340.913 267.087ZM340.913 266.183C341.362 266.183 341.731 266.068 342.021 265.838C342.311 265.608 342.525 265.306 342.665 264.931C342.804 264.556 342.873 264.149 342.873 263.712C342.873 263.274 342.804 262.867 342.665 262.489C342.525 262.111 342.311 261.806 342.021 261.573C341.731 261.34 341.362 261.223 340.913 261.223C340.464 261.223 340.095 261.34 339.805 261.573C339.516 261.806 339.301 262.111 339.162 262.489C339.023 262.867 338.953 263.274 338.953 263.712C338.953 264.149 339.023 264.556 339.162 264.931C339.301 265.306 339.516 265.608 339.805 265.838C340.095 266.068 340.464 266.183 340.913 266.183ZM351.636 260.405V261.257H348.244V260.405H351.636ZM349.232 258.837H350.238V265.076C350.238 265.36 350.279 265.573 350.362 265.715C350.447 265.854 350.555 265.948 350.686 265.996C350.819 266.041 350.96 266.064 351.107 266.064C351.218 266.064 351.309 266.058 351.38 266.047C351.451 266.033 351.508 266.022 351.551 266.013L351.755 266.916C351.687 266.942 351.592 266.968 351.47 266.993C351.348 267.022 351.193 267.036 351.005 267.036C350.721 267.036 350.443 266.975 350.17 266.852C349.9 266.73 349.676 266.544 349.497 266.294C349.321 266.044 349.232 265.729 349.232 265.348V258.837ZM355.737 267.087C355.147 267.087 354.628 266.946 354.182 266.665C353.739 266.384 353.392 265.99 353.142 265.485C352.895 264.979 352.772 264.388 352.772 263.712C352.772 263.03 352.895 262.435 353.142 261.926C353.392 261.418 353.739 261.023 354.182 260.742C354.628 260.46 355.147 260.32 355.737 260.32C356.328 260.32 356.845 260.46 357.289 260.742C357.735 261.023 358.081 261.418 358.328 261.926C358.578 262.435 358.703 263.03 358.703 263.712C358.703 264.388 358.578 264.979 358.328 265.485C358.081 265.99 357.735 266.384 357.289 266.665C356.845 266.946 356.328 267.087 355.737 267.087ZM355.737 266.183C356.186 266.183 356.556 266.068 356.845 265.838C357.135 265.608 357.35 265.306 357.489 264.931C357.628 264.556 357.698 264.149 357.698 263.712C357.698 263.274 357.628 262.867 357.489 262.489C357.35 262.111 357.135 261.806 356.845 261.573C356.556 261.34 356.186 261.223 355.737 261.223C355.289 261.223 354.919 261.34 354.63 261.573C354.34 261.806 354.125 262.111 353.986 262.489C353.847 262.867 353.777 263.274 353.777 263.712C353.777 264.149 353.847 264.556 353.986 264.931C354.125 265.306 354.34 265.608 354.63 265.838C354.919 266.068 355.289 266.183 355.737 266.183ZM313.183 281.951V273.223H316.132C316.814 273.223 317.374 273.34 317.811 273.573C318.249 273.803 318.573 274.12 318.783 274.523C318.993 274.926 319.098 275.385 319.098 275.899C319.098 276.414 318.993 276.87 318.783 277.267C318.573 277.665 318.25 277.977 317.816 278.205C317.381 278.429 316.826 278.541 316.149 278.541H313.763V277.587H316.115C316.581 277.587 316.956 277.519 317.24 277.382C317.527 277.246 317.735 277.053 317.862 276.803C317.993 276.55 318.058 276.249 318.058 275.899C318.058 275.55 317.993 275.245 317.862 274.983C317.732 274.722 317.523 274.52 317.236 274.378C316.949 274.233 316.57 274.161 316.098 274.161H314.24V281.951H313.183ZM317.291 278.03L319.439 281.951H318.212L316.098 278.03H317.291ZM323.312 282.087C322.721 282.087 322.202 281.946 321.756 281.665C321.313 281.384 320.967 280.99 320.717 280.485C320.469 279.979 320.346 279.388 320.346 278.712C320.346 278.03 320.469 277.435 320.717 276.926C320.967 276.418 321.313 276.023 321.756 275.742C322.202 275.46 322.721 275.32 323.312 275.32C323.903 275.32 324.42 275.46 324.863 275.742C325.309 276.023 325.655 276.418 325.903 276.926C326.153 277.435 326.278 278.03 326.278 278.712C326.278 279.388 326.153 279.979 325.903 280.485C325.655 280.99 325.309 281.384 324.863 281.665C324.42 281.946 323.903 282.087 323.312 282.087ZM323.312 281.183C323.761 281.183 324.13 281.068 324.42 280.838C324.709 280.608 324.924 280.306 325.063 279.931C325.202 279.556 325.272 279.149 325.272 278.712C325.272 278.274 325.202 277.867 325.063 277.489C324.924 277.111 324.709 276.806 324.42 276.573C324.13 276.34 323.761 276.223 323.312 276.223C322.863 276.223 322.493 276.34 322.204 276.573C321.914 276.806 321.699 277.111 321.56 277.489C321.421 277.867 321.351 278.274 321.351 278.712C321.351 279.149 321.421 279.556 321.56 279.931C321.699 280.306 321.914 280.608 322.204 280.838C322.493 281.068 322.863 281.183 323.312 281.183ZM331.938 279.274V275.405H332.943V281.951H331.938V280.843H331.87C331.716 281.175 331.478 281.458 331.154 281.691C330.83 281.921 330.421 282.036 329.926 282.036C329.517 282.036 329.154 281.946 328.835 281.767C328.517 281.585 328.267 281.313 328.085 280.949C327.904 280.583 327.813 280.121 327.813 279.564V275.405H328.818V279.496C328.818 279.973 328.952 280.354 329.219 280.638C329.489 280.922 329.833 281.064 330.25 281.064C330.5 281.064 330.755 281 331.013 280.872C331.274 280.745 331.493 280.549 331.669 280.284C331.848 280.02 331.938 279.683 331.938 279.274ZM337.632 275.405V276.257H334.24V275.405H337.632ZM335.229 273.837H336.234V280.076C336.234 280.36 336.275 280.573 336.358 280.715C336.443 280.854 336.551 280.948 336.682 280.996C336.815 281.041 336.956 281.064 337.104 281.064C337.214 281.064 337.305 281.058 337.376 281.047C337.447 281.033 337.504 281.022 337.547 281.013L337.751 281.916C337.683 281.942 337.588 281.968 337.466 281.993C337.344 282.022 337.189 282.036 337.001 282.036C336.717 282.036 336.439 281.975 336.166 281.852C335.896 281.73 335.672 281.544 335.493 281.294C335.317 281.044 335.229 280.729 335.229 280.348V273.837ZM341.819 282.087C341.188 282.087 340.644 281.948 340.187 281.669C339.732 281.388 339.381 280.996 339.134 280.493C338.89 279.987 338.768 279.399 338.768 278.729C338.768 278.058 338.89 277.468 339.134 276.956C339.381 276.442 339.725 276.041 340.165 275.754C340.609 275.465 341.126 275.32 341.717 275.32C342.057 275.32 342.394 275.377 342.726 275.49C343.059 275.604 343.361 275.789 343.634 276.044C343.907 276.297 344.124 276.632 344.286 277.05C344.448 277.468 344.529 277.982 344.529 278.593V279.019H339.484V278.149H343.506C343.506 277.78 343.432 277.451 343.285 277.161C343.14 276.871 342.932 276.642 342.663 276.475C342.395 276.307 342.08 276.223 341.717 276.223C341.316 276.223 340.969 276.323 340.677 276.522C340.387 276.718 340.164 276.973 340.008 277.289C339.851 277.604 339.773 277.942 339.773 278.303V278.882C339.773 279.377 339.859 279.796 340.029 280.139C340.202 280.48 340.442 280.74 340.749 280.919C341.056 281.095 341.413 281.183 341.819 281.183C342.083 281.183 342.322 281.147 342.535 281.073C342.751 280.996 342.937 280.882 343.093 280.732C343.249 280.578 343.37 280.388 343.455 280.161L344.427 280.433C344.324 280.763 344.153 281.053 343.911 281.303C343.67 281.55 343.371 281.743 343.016 281.882C342.661 282.019 342.262 282.087 341.819 282.087ZM350.695 276.871L349.792 277.127C349.735 276.976 349.651 276.83 349.54 276.688C349.432 276.543 349.285 276.424 349.097 276.33C348.91 276.236 348.67 276.189 348.377 276.189C347.976 276.189 347.643 276.281 347.376 276.466C347.111 276.648 346.979 276.879 346.979 277.161C346.979 277.411 347.07 277.608 347.252 277.753C347.434 277.898 347.718 278.019 348.104 278.115L349.076 278.354C349.661 278.496 350.097 278.713 350.384 279.006C350.671 279.296 350.815 279.669 350.815 280.127C350.815 280.502 350.707 280.837 350.491 281.132C350.278 281.428 349.979 281.661 349.596 281.831C349.212 282.002 348.766 282.087 348.258 282.087C347.59 282.087 347.038 281.942 346.6 281.652C346.163 281.362 345.886 280.939 345.769 280.382L346.724 280.144C346.815 280.496 346.986 280.76 347.239 280.936C347.495 281.112 347.829 281.201 348.241 281.201C348.709 281.201 349.082 281.101 349.357 280.902C349.636 280.701 349.775 280.459 349.775 280.178C349.775 279.951 349.695 279.76 349.536 279.607C349.377 279.451 349.133 279.334 348.803 279.257L347.712 279.002C347.113 278.86 346.672 278.639 346.391 278.341C346.113 278.04 345.974 277.664 345.974 277.212C345.974 276.843 346.077 276.516 346.285 276.232C346.495 275.948 346.78 275.725 347.141 275.563C347.505 275.401 347.917 275.32 348.377 275.32C349.025 275.32 349.533 275.462 349.903 275.746C350.275 276.03 350.539 276.405 350.695 276.871ZM353.658 273.223L353.573 279.496H352.584L352.499 273.223H353.658ZM353.078 282.019C352.868 282.019 352.688 281.943 352.537 281.793C352.387 281.642 352.311 281.462 352.311 281.252C352.311 281.041 352.387 280.861 352.537 280.71C352.688 280.56 352.868 280.485 353.078 280.485C353.289 280.485 353.469 280.56 353.62 280.71C353.77 280.861 353.845 281.041 353.845 281.252C353.845 281.391 353.81 281.519 353.739 281.635C353.671 281.752 353.578 281.845 353.462 281.916C353.348 281.985 353.22 282.019 353.078 282.019ZM356.555 273.223V273.99C356.555 274.223 356.512 274.472 356.427 274.736C356.344 274.997 356.222 275.252 356.06 275.499C355.901 275.743 355.708 275.956 355.481 276.138L354.935 275.695C355.114 275.439 355.269 275.174 355.4 274.898C355.533 274.62 355.6 274.323 355.6 274.007V273.223H356.555ZM358.736 273.223V273.99C358.736 274.223 358.694 274.472 358.609 274.736C358.526 274.997 358.404 275.252 358.242 275.499C358.083 275.743 357.89 275.956 357.663 276.138L357.117 275.695C357.296 275.439 357.451 275.174 357.582 274.898C357.715 274.62 357.782 274.323 357.782 274.007V273.223H358.736Z" fill="#F8F8F9"/>
</g>
<path d="M305.825 128.526C305.825 123.971 314.936 121.465 319.491 121.465C324.046 121.465 333.157 123.971 333.157 128.526V130.804H305.825M326.324 110.305C326.324 112.117 325.604 113.855 324.323 115.137C323.041 116.418 321.303 117.138 319.491 117.138C317.679 117.138 315.941 116.418 314.659 115.137C313.378 113.855 312.658 112.117 312.658 110.305C312.658 108.493 313.378 106.755 314.659 105.473C315.941 104.192 317.679 103.472 319.491 103.472C321.303 103.472 323.041 104.192 324.323 105.473C325.604 106.755 326.324 108.493 326.324 110.305ZM298.992 101.194V133.082C298.992 134.29 299.472 135.448 300.326 136.303C301.18 137.157 302.339 137.637 303.547 137.637H335.435C336.643 137.637 337.802 137.157 338.656 136.303C339.51 135.448 339.99 134.29 339.99 133.082V101.194C339.99 99.9859 339.51 98.8273 338.656 97.973C337.802 97.1187 336.643 96.6387 335.435 96.6387H303.547C302.339 96.6387 301.18 97.1187 300.326 97.973C299.472 98.8273 298.992 99.9859 298.992 101.194Z" fill="#232A30"/>
<defs>
<filter id="filter0_d_75_106" x="0" y="0" width="671" height="705.36" filterUnits="userSpaceOnUse" color-interpolation-filters="sRGB">
<feFlood flood-opacity="0" result="BackgroundImageFix"/>
<feColorMatrix in="SourceAlpha" type="matrix" values="0 0 0 0 0 0 0 0 0 0 0 0 0 0 0 0 0 0 127 0" result="hardAlpha"/>
<feOffset dy="4"/>
<feGaussianBlur stdDeviation="2"/>
<feComposite in2="hardAlpha" operator="out"/>
<feColorMatrix type="matrix" values="0 0 0 0 0 0 0 0 0 0 0 0 0 0 0 0 0 0 0.25 0"/>
<feBlend mode="normal" in2="BackgroundImageFix" result="effect1_dropShadow_75_106"/>
<feBlend mode="normal" in="SourceGraphic" in2="effect1_dropShadow_75_106" result="shape"/>
</filter>
</defs>
</svg>
