<svg width="371" height="107" viewBox="0 0 371 107" fill="none" xmlns="http://www.w3.org/2000/svg">
<path d="M78.8807 87.6591C75.214 87.6591 72.0625 86.9091 69.4261 85.4091C66.8049 83.8939 64.7822 81.7879 63.358 79.0909C61.9489 76.3788 61.2443 73.2348 61.2443 69.6591C61.2443 66.0682 61.9489 62.9242 63.358 60.2273C64.7822 57.5152 66.8049 55.4091 69.4261 53.9091C72.0625 52.3939 75.214 51.6364 78.8807 51.6364C82.5473 51.6364 85.6913 52.3939 88.3125 53.9091C90.9489 55.4091 92.9716 57.5152 94.3807 60.2273C95.8049 62.9242 96.517 66.0682 96.517 69.6591C96.517 73.2348 95.8049 76.3788 94.3807 79.0909C92.9716 81.7879 90.9489 83.8939 88.3125 85.4091C85.6913 86.9091 82.5473 87.6591 78.8807 87.6591ZM78.9489 79.2727C80.2822 79.2727 81.411 78.8636 82.3352 78.0455C83.2595 77.2273 83.964 76.0909 84.4489 74.6364C84.9489 73.1818 85.1989 71.5 85.1989 69.5909C85.1989 67.6515 84.9489 65.9545 84.4489 64.5C83.964 63.0455 83.2595 61.9091 82.3352 61.0909C81.411 60.2727 80.2822 59.8636 78.9489 59.8636C77.5701 59.8636 76.4034 60.2727 75.4489 61.0909C74.5095 61.9091 73.7898 63.0455 73.2898 64.5C72.8049 65.9545 72.5625 67.6515 72.5625 69.5909C72.5625 71.5 72.8049 73.1818 73.2898 74.6364C73.7898 76.0909 74.5095 77.2273 75.4489 78.0455C76.4034 78.8636 77.5701 79.2727 78.9489 79.2727ZM124.733 71.9318V52.0909H135.824V87H125.233V80.5H124.869C124.097 82.6364 122.778 84.3333 120.915 85.5909C119.066 86.8333 116.831 87.4545 114.21 87.4545C111.831 87.4545 109.741 86.9091 107.938 85.8182C106.134 84.7273 104.733 83.2045 103.733 81.25C102.733 79.2803 102.225 76.9773 102.21 74.3409V52.0909H113.324V72.1591C113.339 74.053 113.839 75.5455 114.824 76.6364C115.809 77.7273 117.15 78.2727 118.847 78.2727C119.953 78.2727 120.945 78.0303 121.824 77.5455C122.718 77.0455 123.422 76.3258 123.938 75.3864C124.468 74.4318 124.733 73.2803 124.733 71.9318ZM162.602 52.0909V60.2727H140.58V52.0909H162.602ZM145.193 43.7273H156.307V76.0227C156.307 76.7045 156.413 77.2576 156.625 77.6818C156.852 78.0909 157.178 78.3864 157.602 78.5682C158.027 78.7348 158.534 78.8182 159.125 78.8182C159.549 78.8182 159.996 78.7803 160.466 78.7045C160.951 78.6136 161.314 78.5379 161.557 78.4773L163.239 86.5C162.708 86.6515 161.958 86.8409 160.989 87.0682C160.034 87.2955 158.89 87.4394 157.557 87.5C154.951 87.6212 152.716 87.3182 150.852 86.5909C149.004 85.8485 147.587 84.697 146.602 83.1364C145.633 81.5758 145.163 79.6136 145.193 77.25V43.7273ZM184.216 87.6591C180.564 87.6591 177.413 86.9394 174.761 85.5C172.125 84.0455 170.095 81.9773 168.67 79.2955C167.261 76.5985 166.557 73.3939 166.557 69.6818C166.557 66.0758 167.269 62.9242 168.693 60.2273C170.117 57.5152 172.125 55.4091 174.716 53.9091C177.307 52.3939 180.36 51.6364 183.875 51.6364C186.36 51.6364 188.633 52.0227 190.693 52.7955C192.754 53.5682 194.534 54.7121 196.034 56.2273C197.534 57.7424 198.701 59.6136 199.534 61.8409C200.367 64.053 200.784 66.5909 200.784 69.4545V72.2273H170.443V65.7727H190.443C190.428 64.5909 190.148 63.5379 189.602 62.6136C189.057 61.6894 188.307 60.9697 187.352 60.4545C186.413 59.9242 185.33 59.6591 184.102 59.6591C182.86 59.6591 181.746 59.9394 180.761 60.5C179.777 61.0455 178.996 61.7955 178.42 62.75C177.845 63.6894 177.542 64.7576 177.511 65.9545V72.5227C177.511 73.947 177.792 75.197 178.352 76.2727C178.913 77.3333 179.708 78.1591 180.739 78.75C181.769 79.3409 182.996 79.6364 184.42 79.6364C185.405 79.6364 186.299 79.5 187.102 79.2273C187.905 78.9545 188.595 78.553 189.17 78.0227C189.746 77.4924 190.178 76.8409 190.466 76.0682L200.67 76.3636C200.246 78.6515 199.314 80.6439 197.875 82.3409C196.451 84.0227 194.58 85.3333 192.261 86.2727C189.943 87.197 187.261 87.6591 184.216 87.6591ZM236.938 62.75L226.733 63.0227C226.627 62.2955 226.339 61.6515 225.869 61.0909C225.4 60.5152 224.786 60.0682 224.028 59.75C223.286 59.4167 222.422 59.25 221.438 59.25C220.15 59.25 219.051 59.5076 218.142 60.0227C217.248 60.5379 216.809 61.2348 216.824 62.1136C216.809 62.7955 217.081 63.3864 217.642 63.8864C218.218 64.3864 219.241 64.7879 220.71 65.0909L227.438 66.3636C230.922 67.0303 233.513 68.1364 235.21 69.6818C236.922 71.2273 237.786 73.2727 237.801 75.8182C237.786 78.2121 237.074 80.2955 235.665 82.0682C234.271 83.8409 232.362 85.2197 229.938 86.2045C227.513 87.1742 224.741 87.6591 221.619 87.6591C216.634 87.6591 212.703 86.6364 209.824 84.5909C206.96 82.5303 205.324 79.7727 204.915 76.3182L215.892 76.0455C216.134 77.3182 216.763 78.2879 217.778 78.9545C218.794 79.6212 220.089 79.9545 221.665 79.9545C223.089 79.9545 224.248 79.6894 225.142 79.1591C226.036 78.6288 226.491 77.9242 226.506 77.0455C226.491 76.2576 226.142 75.6288 225.46 75.1591C224.778 74.6742 223.71 74.2955 222.256 74.0227L216.165 72.8636C212.665 72.2273 210.059 71.053 208.347 69.3409C206.634 67.6136 205.786 65.4167 205.801 62.75C205.786 60.4167 206.407 58.4242 207.665 56.7727C208.922 55.1061 210.71 53.8333 213.028 52.9545C215.347 52.0758 218.081 51.6364 221.233 51.6364C225.96 51.6364 229.688 52.6288 232.415 54.6136C235.142 56.5833 236.65 59.2955 236.938 62.75ZM253.341 87H241.25L256.955 40.4545H271.932L287.636 87H275.545L264.614 52.1818H264.25L253.341 87ZM251.727 68.6818H277V77.2273H251.727V68.6818ZM292.648 100.091V52.0909H303.648V58.0682H303.989C304.443 57.0076 305.087 55.9848 305.92 55C306.769 54.0152 307.845 53.2121 309.148 52.5909C310.466 51.9545 312.042 51.6364 313.875 51.6364C316.299 51.6364 318.564 52.2727 320.67 53.5455C322.792 54.8182 324.504 56.7803 325.807 59.4318C327.11 62.0833 327.761 65.4621 327.761 69.5682C327.761 73.5227 327.133 76.8333 325.875 79.5C324.633 82.1667 322.951 84.1667 320.83 85.5C318.723 86.8333 316.383 87.5 313.807 87.5C312.049 87.5 310.527 87.2121 309.239 86.6364C307.951 86.0606 306.867 85.303 305.989 84.3636C305.125 83.4242 304.458 82.4167 303.989 81.3409H303.761V100.091H292.648ZM303.534 69.5455C303.534 71.4242 303.784 73.0606 304.284 74.4545C304.799 75.8485 305.534 76.9318 306.489 77.7045C307.458 78.4621 308.617 78.8409 309.966 78.8409C311.33 78.8409 312.489 78.4621 313.443 77.7045C314.398 76.9318 315.117 75.8485 315.602 74.4545C316.102 73.0606 316.352 71.4242 316.352 69.5455C316.352 67.6667 316.102 66.0379 315.602 64.6591C315.117 63.2803 314.398 62.2121 313.443 61.4545C312.504 60.697 311.345 60.3182 309.966 60.3182C308.602 60.3182 307.443 60.6894 306.489 61.4318C305.534 62.1742 304.799 63.2348 304.284 64.6136C303.784 65.9924 303.534 67.6364 303.534 69.5455ZM333.585 100.091V52.0909H344.585V58.0682H344.926C345.381 57.0076 346.025 55.9848 346.858 55C347.706 54.0152 348.782 53.2121 350.085 52.5909C351.403 51.9545 352.979 51.6364 354.812 51.6364C357.237 51.6364 359.502 52.2727 361.608 53.5455C363.729 54.8182 365.441 56.7803 366.744 59.4318C368.047 62.0833 368.699 65.4621 368.699 69.5682C368.699 73.5227 368.07 76.8333 366.812 79.5C365.57 82.1667 363.888 84.1667 361.767 85.5C359.661 86.8333 357.32 87.5 354.744 87.5C352.987 87.5 351.464 87.2121 350.176 86.6364C348.888 86.0606 347.805 85.303 346.926 84.3636C346.062 83.4242 345.396 82.4167 344.926 81.3409H344.699V100.091H333.585ZM344.472 69.5455C344.472 71.4242 344.722 73.0606 345.222 74.4545C345.737 75.8485 346.472 76.9318 347.426 77.7045C348.396 78.4621 349.555 78.8409 350.903 78.8409C352.267 78.8409 353.426 78.4621 354.381 77.7045C355.335 76.9318 356.055 75.8485 356.54 74.4545C357.04 73.0606 357.29 71.4242 357.29 69.5455C357.29 67.6667 357.04 66.0379 356.54 64.6591C356.055 63.2803 355.335 62.2121 354.381 61.4545C353.441 60.697 352.282 60.3182 350.903 60.3182C349.54 60.3182 348.381 60.6894 347.426 61.4318C346.472 62.1742 345.737 63.2348 345.222 64.6136C344.722 65.9924 344.472 67.6364 344.472 69.5455Z" fill="#A7112A"/>
<mask id="path-2-outside-1_23_8" maskUnits="userSpaceOnUse" x="27.7682" y="51.192" width="36" height="36" fill="black">
<rect fill="white" x="27.7682" y="51.192" width="36" height="36"/>
<path fill-rule="evenodd" clip-rule="evenodd" d="M29.7682 55.7008V53.192H36.1022C36.0413 53.2198 35.9802 53.2474 35.9188 53.275C36.8535 55.0459 37.97 57.0381 39.2681 59.2518C40.5663 61.4654 41.9424 63.679 43.3964 65.8926C44.8504 68.1062 46.2524 70.1538 47.6025 72.0354C48.9007 73.7509 50.121 75.2451 51.2634 76.518C52.4577 77.7908 53.8079 78.8976 55.3138 79.8384C56.8716 80.7792 58.767 81.72 60.9998 82.6608L60.2988 85.0681C56.7158 84.7914 53.8079 84.321 51.575 83.6569C49.394 82.9928 47.5506 82.0797 46.0447 80.9175C44.5907 79.7 43.1627 78.2612 41.7607 76.601C40.9298 75.6049 39.9692 74.1937 38.8787 72.3674C37.7882 70.5412 36.6718 68.5766 35.5294 66.4737C34.387 64.3154 33.2705 62.2401 32.18 60.2479C31.2516 58.4668 30.4476 56.9512 29.7682 55.7008Z"/>
</mask>
<path fill-rule="evenodd" clip-rule="evenodd" d="M29.7682 55.7008V53.192H36.1022C36.0413 53.2198 35.9802 53.2474 35.9188 53.275C36.8535 55.0459 37.97 57.0381 39.2681 59.2518C40.5663 61.4654 41.9424 63.679 43.3964 65.8926C44.8504 68.1062 46.2524 70.1538 47.6025 72.0354C48.9007 73.7509 50.121 75.2451 51.2634 76.518C52.4577 77.7908 53.8079 78.8976 55.3138 79.8384C56.8716 80.7792 58.767 81.72 60.9998 82.6608L60.2988 85.0681C56.7158 84.7914 53.8079 84.321 51.575 83.6569C49.394 82.9928 47.5506 82.0797 46.0447 80.9175C44.5907 79.7 43.1627 78.2612 41.7607 76.601C40.9298 75.6049 39.9692 74.1937 38.8787 72.3674C37.7882 70.5412 36.6718 68.5766 35.5294 66.4737C34.387 64.3154 33.2705 62.2401 32.18 60.2479C31.2516 58.4668 30.4476 56.9512 29.7682 55.7008Z" fill="#FDA0A6"/>
<path d="M29.7682 53.192V51.2708H27.8469V53.192H29.7682ZM29.7682 55.7008H27.8469V56.1892L28.0801 56.6182L29.7682 55.7008ZM36.1022 53.192L36.8996 54.94L36.1022 51.2708V53.192ZM35.9188 53.275L35.1323 51.5221L33.2637 52.3606L34.2197 54.1718L35.9188 53.275ZM39.2681 59.2518L37.6109 60.2237L37.6109 60.2237L39.2681 59.2518ZM43.3964 65.8926L41.7905 66.9474L41.7906 66.9474L43.3964 65.8926ZM47.6025 72.0354L46.0415 73.1555L46.0558 73.1753L46.0705 73.1947L47.6025 72.0354ZM51.2634 76.518L49.8336 77.8013L49.8478 77.8171L49.8624 77.8326L51.2634 76.518ZM55.3138 79.8384L54.2958 81.4678L54.3081 81.4755L54.3206 81.483L55.3138 79.8384ZM60.9998 82.6608L62.8445 83.1979L63.323 81.5547L61.7458 80.8902L60.9998 82.6608ZM60.2988 85.0681L60.1509 86.9836L61.7071 87.1038L62.1435 85.6052L60.2988 85.0681ZM51.575 83.6569L51.0153 85.4949L51.0273 85.4984L51.575 83.6569ZM46.0447 80.9175L44.8112 82.3906L44.8406 82.4151L44.8709 82.4385L46.0447 80.9175ZM41.7607 76.601L40.2852 77.8316L40.2928 77.8406L41.7607 76.601ZM38.8787 72.3674L40.5282 71.3825L40.5282 71.3825L38.8787 72.3674ZM35.5294 66.4737L33.8313 67.3725L33.8362 67.3817L33.8411 67.3908L35.5294 66.4737ZM32.18 60.2479L30.4764 61.136L30.4854 61.1533L30.4947 61.1704L32.18 60.2479ZM27.8469 53.192V55.7008H31.6894V53.192H27.8469ZM36.1022 51.2708H29.7682V55.1133H36.1022V51.2708ZM36.7054 55.0279C36.7704 54.9987 36.8351 54.9694 36.8996 54.94L35.3048 51.4441C35.2475 51.4702 35.19 51.4962 35.1323 51.5221L36.7054 55.0279ZM40.9254 58.2798C39.6379 56.0845 38.5361 54.1178 37.6179 52.3782L34.2197 54.1718C35.1709 55.9739 36.302 57.9918 37.6109 60.2237L40.9254 58.2798ZM45.0022 64.8378C43.5655 62.6505 42.2067 60.4645 40.9254 58.2798L37.6109 60.2237C38.926 62.4662 40.3193 64.7074 41.7905 66.9474L45.0022 64.8378ZM49.1635 70.9153C47.8308 69.058 46.4437 67.0324 45.0022 64.8378L41.7906 66.9474C43.257 69.18 44.674 71.2497 46.0415 73.1555L49.1635 70.9153ZM52.6932 75.2347C51.5943 74.0103 50.4082 72.5592 49.1346 70.8761L46.0705 73.1947C47.3932 74.9427 48.6477 76.48 49.8336 77.8013L52.6932 75.2347ZM56.3317 78.209C54.9641 77.3546 53.7433 76.353 52.6645 75.2033L49.8624 77.8326C51.1722 79.2286 52.6516 80.4406 54.2958 81.4678L56.3317 78.209ZM61.7458 80.8902C59.5722 79.9744 57.7645 79.074 56.307 78.1938L54.3206 81.483C55.9787 82.4844 57.9617 83.4655 60.2539 84.4313L61.7458 80.8902ZM62.1435 85.6052L62.8445 83.1979L59.1552 82.1236L58.4542 84.5309L62.1435 85.6052ZM51.0273 85.4984C53.4405 86.2161 56.4969 86.7014 60.1509 86.9836L60.4468 83.1525C56.9347 82.8813 54.1752 82.4258 52.1227 81.8153L51.0273 85.4984ZM44.8709 82.4385C46.5932 83.7677 48.6552 84.7762 51.0153 85.4948L52.1346 81.8189C50.1329 81.2094 48.508 80.3917 47.2185 79.3965L44.8709 82.4385ZM40.2928 77.8406C41.7561 79.5733 43.2614 81.0928 44.8112 82.3906L47.2781 79.4445C45.9201 78.3073 44.5694 76.9491 43.2285 75.3614L40.2928 77.8406ZM37.2291 73.3524C38.343 75.2178 39.3625 76.7252 40.2853 77.8316L43.2361 75.3704C42.4972 74.4845 41.5953 73.1695 40.5282 71.3825L37.2291 73.3524ZM33.8411 67.3908C34.9945 69.5138 36.1238 71.5013 37.2291 73.3524L40.5282 71.3825C39.4526 69.5811 38.3491 67.6394 37.2176 65.5566L33.8411 67.3908ZM30.4947 61.1704C31.5806 63.1542 32.6928 65.2215 33.8313 67.3725L37.2274 65.5749C36.0811 63.4093 34.9604 61.3261 33.8653 59.3254L30.4947 61.1704ZM28.0801 56.6182C28.7526 57.8558 29.5511 59.3611 30.4764 61.136L33.8837 59.3598C32.952 57.5726 32.1427 56.0465 31.4563 54.7835L28.0801 56.6182Z" fill="#A7112A" mask="url(#path-2-outside-1_23_8)"/>
<mask id="path-4-outside-2_23_8" maskUnits="userSpaceOnUse" x="4" y="20" width="53" height="67" fill="black">
<rect fill="white" x="4" y="20" width="53" height="67"/>
<path d="M5.94331 85V22.1224H31.9172C36.6248 22.1224 40.6877 23.0435 44.1058 24.8856C47.5445 26.7072 50.1951 29.2555 52.0576 32.5304C53.9202 35.7848 54.8515 39.5713 54.8515 43.8901C54.8515 48.2293 53.8998 52.0261 51.9962 55.2805C50.1132 58.5144 47.4216 61.0218 43.9216 62.8025C40.4216 64.5832 36.2666 65.4736 31.4566 65.4736H15.4302V53.4998H28.6321C30.9245 53.4998 32.8382 53.1007 34.3733 52.3024C35.9289 51.5042 37.1058 50.3887 37.904 48.9559C38.7023 47.5027 39.1014 45.8141 39.1014 43.8901C39.1014 41.9456 38.7023 40.2673 37.904 38.855C37.1058 37.4222 35.9289 36.3169 34.3733 35.5392C32.8178 34.7614 30.904 34.3725 28.6321 34.3725H21.1408V85H5.94331Z"/>
</mask>
<path d="M5.94331 85V22.1224H31.9172C36.6248 22.1224 40.6877 23.0435 44.1058 24.8856C47.5445 26.7072 50.1951 29.2555 52.0576 32.5304C53.9202 35.7848 54.8515 39.5713 54.8515 43.8901C54.8515 48.2293 53.8998 52.0261 51.9962 55.2805C50.1132 58.5144 47.4216 61.0218 43.9216 62.8025C40.4216 64.5832 36.2666 65.4736 31.4566 65.4736H15.4302V53.4998H28.6321C30.9245 53.4998 32.8382 53.1007 34.3733 52.3024C35.9289 51.5042 37.1058 50.3887 37.904 48.9559C38.7023 47.5027 39.1014 45.8141 39.1014 43.8901C39.1014 41.9456 38.7023 40.2673 37.904 38.855C37.1058 37.4222 35.9289 36.3169 34.3733 35.5392C32.8178 34.7614 30.904 34.3725 28.6321 34.3725H21.1408V85H5.94331Z" fill="#FDA0A6"/>
<path d="M5.94331 85H4.02205V86.9213H5.94331V85ZM5.94331 22.1224V20.2011H4.02205V22.1224H5.94331ZM44.1058 24.8856L43.1943 26.5769L43.2064 26.5833L44.1058 24.8856ZM52.0576 32.5304L50.3876 33.4802L50.3902 33.4847L52.0576 32.5304ZM51.9962 55.2805L50.3378 54.3105L50.3359 54.3138L51.9962 55.2805ZM43.9216 62.8025L44.7928 64.5149V64.5149L43.9216 62.8025ZM15.4302 65.4736H13.509V67.3948H15.4302V65.4736ZM15.4302 53.4998V51.5785H13.509V53.4998H15.4302ZM34.3733 52.3024L33.4961 50.5931L33.4869 50.5978L34.3733 52.3024ZM37.904 48.9559L39.5824 49.891L39.588 49.8809L37.904 48.9559ZM37.904 38.855L36.2257 39.7901L36.2315 39.8003L37.904 38.855ZM34.3733 35.5392L33.5141 37.2576L34.3733 35.5392ZM21.1408 34.3725V32.4512H19.2195V34.3725H21.1408ZM21.1408 85V86.9213H23.062V85H21.1408ZM7.86457 85V22.1224H4.02205V85H7.86457ZM5.94331 24.0437H31.9172V20.2011H5.94331V24.0437ZM31.9172 24.0437C36.3737 24.0437 40.1099 24.9146 43.1944 26.5769L45.0173 23.1943C41.2654 21.1723 36.8759 20.2011 31.9172 20.2011V24.0437ZM43.2064 26.5833C46.3335 28.2399 48.7117 30.5336 50.3876 33.4802L53.7277 31.5805C51.6784 27.9773 48.7554 25.1745 45.0052 23.1878L43.2064 26.5833ZM50.3902 33.4847C52.0626 36.4069 52.9303 39.8547 52.9303 43.8901H56.7728C56.7728 39.288 55.7778 35.1626 53.7251 31.576L50.3902 33.4847ZM52.9303 43.8901C52.9303 47.9406 52.0446 51.3924 50.3378 54.3105L53.6546 56.2505C55.7549 52.6598 56.7728 48.518 56.7728 43.8901H52.9303ZM50.3359 54.3138C48.6482 57.2123 46.2383 59.4682 43.0504 61.0901L44.7928 64.5149C48.605 62.5753 51.5782 59.8166 53.6565 56.2473L50.3359 54.3138ZM43.0504 61.0901C39.8743 62.706 36.0308 63.5523 31.4566 63.5523V67.3948C36.5024 67.3948 40.9689 66.4604 44.7928 64.5149L43.0504 61.0901ZM31.4566 63.5523H15.4302V67.3948H31.4566V63.5523ZM17.3515 65.4736V53.4998H13.509V65.4736H17.3515ZM15.4302 55.4211H28.632V51.5785H15.4302V55.4211ZM28.632 55.4211C31.1367 55.4211 33.3765 54.9862 35.2597 54.007L33.4869 50.5978C32.2999 51.2151 30.7122 51.5785 28.632 51.5785V55.4211ZM35.2505 54.0118C37.1203 53.0522 38.587 51.6776 39.5824 49.891L36.2257 48.0208C35.6246 49.0997 34.7375 49.9561 33.4962 50.5931L35.2505 54.0118ZM39.588 49.8809C40.5653 48.1017 41.0227 46.0852 41.0227 43.8901H37.1802C37.1802 45.5429 36.8393 46.9037 36.2201 48.0309L39.588 49.8809ZM41.0227 43.8901C41.0227 41.6801 40.5674 39.6626 39.5766 37.9096L36.2315 39.8003C36.8371 40.8719 37.1802 42.2112 37.1802 43.8901H41.0227ZM39.5824 37.9199C38.5844 36.1287 37.1117 34.7603 35.2325 33.8207L33.5141 37.2576C34.7461 37.8736 35.6271 38.7157 36.2257 39.79L39.5824 37.9199ZM35.2325 33.8207C33.3413 32.8751 31.1143 32.4512 28.632 32.4512V36.2937C30.6937 36.2937 32.2942 36.6476 33.5141 37.2576L35.2325 33.8207ZM28.632 32.4512H21.1408V36.2937H28.632V32.4512ZM19.2195 34.3725V85H23.062V34.3725H19.2195ZM21.1408 83.0787H5.94331V86.9213H21.1408V83.0787Z" fill="#A7112A" mask="url(#path-4-outside-2_23_8)"/>
<path d="M27.8623 61.7544C25.6166 61.8192 23.3789 61.4044 21.2763 60.5318C19.1736 59.6592 17.2456 58.345 15.604 56.6614C13.9622 54.9776 12.6394 52.9576 11.7136 50.7152C10.7878 48.4727 10.2779 46.0536 10.2141 43.5964C10.1504 41.1391 10.5342 38.6942 11.3424 36.4017C12.1507 34.1093 13.3668 32.0159 14.9188 30.24C16.4708 28.4642 18.3278 27.0408 20.3821 26.0481C22.4363 25.0556 24.6492 24.5123 26.8949 24.4475" stroke="white" stroke-width="1.44094" stroke-dasharray="1.92 1.92"/>
<path d="M31.247 61.2707C33.4927 61.3355 35.7304 60.9207 37.8329 60.0482C39.9356 59.1755 41.8637 57.8614 43.5053 56.1777C45.147 54.494 46.4698 52.4739 47.3957 50.2315C48.3215 47.9891 48.8314 45.57 48.8951 43.1127C48.9588 40.6555 48.575 38.2106 47.7668 35.9181C46.9586 33.6256 45.7425 31.5323 44.1904 29.7563C42.6385 27.9805 40.7815 26.5571 38.7271 25.5645C36.6729 24.5719 34.4601 24.0286 32.2144 23.9638" stroke="white" stroke-width="1.44094" stroke-dasharray="1.92 1.92"/>
<path d="M45.3769 13.8405C45.3769 20.4162 41.4548 25.4666 33.4706 32.1902C29.1283 29.1086 21.5643 20.4162 21.5643 13.8405C21.5643 7.26483 26.895 1.9342 33.4706 1.9342C40.0463 1.9342 45.3769 7.26483 45.3769 13.8405Z" fill="#A7112A"/>
<path d="M43.4158 14.3774C43.4158 19.8571 40.1397 24.0659 33.4705 29.6688C29.8434 27.1008 23.5253 19.8571 23.5253 14.3774C23.5253 8.8977 27.9779 4.45551 33.4705 4.45551C38.9631 4.45551 43.4158 8.8977 43.4158 14.3774Z" fill="#FDE2E3"/>
<circle cx="33.4705" cy="13.8405" r="5.18274" fill="#232A30"/>
<circle cx="33.3308" cy="13.9805" r="3.08163" fill="white"/>
<path d="M40.314 66.4639C45.5755 77.726 59.271 83.6399 59.271 83.6399" stroke="white" stroke-width="1.44094" stroke-dasharray="1.92 1.92"/>
<line x1="14.788" y1="57.0604" x2="14.788" y2="83.6564" stroke="white" stroke-width="1.92126" stroke-dasharray="1.92 1.92"/>
</svg>
